<?xml version="1.0" encoding="utf-8"?>
<!-- Generator: Adobe Illustrator 16.0.0, SVG Export Plug-In . SVG Version: 6.00 Build 0)  -->
<!DOCTYPE svg PUBLIC "-//W3C//DTD SVG 1.1//EN" "http://www.w3.org/Graphics/SVG/1.1/DTD/svg11.dtd">
<svg version="1.1" id="Layer_1" xmlns="http://www.w3.org/2000/svg" xmlns:xlink="http://www.w3.org/1999/xlink" x="0px" y="0px"
	 width="271px" height="254px" viewBox="0 0 271 254" enable-background="new 0 0 271 254" xml:space="preserve">
<path d="M204.628,202.237c-14.311-12.193-28.635-24.365-42.906-36.604c-1.738-1.49-3.131-2.116-5.496-0.997
	c-4.027,1.905-7.58,0.345-10.809-2.415c-17.945-15.339-35.949-30.611-53.882-45.966c-3.703-3.173-7.78-5.638-12.307-7.358
	c-10.104-3.845-19.856-1.525-27.227,6.4c-3.712,3.99-3.984,4.109-9.013,1.964c-5.006-2.14-10.513-3.379-14.863-6.728
	c-10.943-8.416-14.315-19.921-12.582-33.211c1.441-11.06,5.892-21.006,11.892-30.259c10.36-15.975,24.56-27.112,42.82-32.709
	c11.522-3.532,22.25-1.484,31.932,5.771c1.236,0.927,2.355,1.968,3.169,3.284c2.815,4.553,5.588,9.132,8.422,13.673
	c1.322,2.12,1.317,4.091-0.334,6.019c-12.146,14.182-6.782,29.188,4.985,39.538c17.726,15.589,35.828,30.753,53.877,45.969
	c4.109,3.463,6.795,7.094,4.762,12.703c-0.654,1.813,0.879,2.533,1.908,3.412c10.631,9.094,21.285,18.163,31.934,27.234
	c8.402,7.16,16.799,14.328,25.217,21.473c1.539,1.307,2.904,2.648,2.904,4.871c0.006,13.451,6.551,24.219,14.203,34.523
	c1.68,2.26,4.123,4.42,1.502,7.435c-1.66,1.909-3.975,1.269-7.672-1.879c-14.145-12.05-28.287-24.103-42.43-36.151
	C204.632,202.233,204.63,202.235,204.628,202.237z M80.117,44.385c-6.863,0.449-11.727,3.258-16.343,6.583
	c-10.668,7.684-18.07,18.236-25.304,28.938c-0.957,1.416-1.573,4.261-3.824,2.947c-2.296-1.34-0.132-3.368,0.747-4.735
	c5.917-9.205,12.276-18.087,20.487-25.441c6.674-5.979,13.829-11.314,23.165-11.854c3.417-0.198,5.834-1.108,7.683-3.88
	c0.662-0.994,1.587-1.809,2.304-2.771c0.554-0.743,1.792-1.382,1.232-2.438c-0.539-1.014-1.789-0.544-2.715-0.443
	c-11.464,1.247-21.852,5.126-30.708,12.691c-0.581,0.495-1.124,1.045-1.75,1.474c-0.773,0.528-1.63,0.708-2.38-0.063
	c-0.774-0.796-0.52-1.666,0.115-2.343c1.113-1.191,2.234-2.412,3.524-3.396c10.521-8.034,22.497-11.863,35.661-12.251
	c1.342-0.04,3.208,0.306,3.512-1.563c0.252-1.548-1.405-2.035-2.527-2.619c-7.473-3.888-15.246-3.741-22.904-0.988
	c-15.521,5.58-27.687,15.513-36.615,29.373c-3.025,4.698-5.525,9.665-7.201,15.016c0.407-0.266,0.623-0.629,0.835-0.991
	c6.565-11.25,14.601-21.224,25.264-28.878c1.068-0.767,2.437-2.15,3.711-0.573c1.288,1.595-0.228,2.535-1.383,3.372
	C40.841,49.592,31.722,63.229,24.72,78.578c-3.858,8.457-1.004,15.468,3.889,22.242c0.887,1.229,2.057,1.76,3.255,0.381
	c2.132-2.451,4.388-4.707,5.306-8.104c2.729-10.095,8.273-18.714,14.809-26.74c0.87-1.069,1.982-2.661,3.464-1.475
	c1.733,1.387,0.05,2.701-0.798,3.879c-1.853,2.566-3.873,5.022-5.585,7.679c-2.186,3.39-4.486,6.755-5.958,11.396
	C55.569,73.195,67.522,59.167,80.117,44.385z M98.977,61.218c-0.292-0.069-0.583-0.14-0.875-0.208
	c-5.014,5.884-10.026,11.769-15.042,17.65c-1.144,1.341-0.668,2.519,0.154,3.855c4.115,6.694,10.232,11.282,16.452,15.754
	c2.123,1.527,4.43,2.795,6.635,4.211c0.765,0.491,1.4,1.146,1.063,2.161c-0.268,0.797-0.914,1.322-1.764,1.125
	c-0.83-0.19-1.654-0.543-2.393-0.978c-8.634-5.067-16.605-10.912-22.458-19.232c-0.593-0.842-1.05-2.02-2.533-1.019
	c-2.813,1.898-3.162,4.046-0.854,6.538c1.334,1.439,2.72,2.836,4.146,4.185c11.747,11.079,25.596,18.89,39.977,25.94
	c7.634,3.744,15.346,7.486,21.188,13.992c0.998,1.109,1.881,1.141,3.031,0.051c2.965-2.812,3.016-3.813,0.035-6.564
	c-6.324-5.852-13.309-10.619-21.596-13.301c-1.26-0.406-3.233-0.688-2.621-2.643c0.678-2.17,2.537-1.154,3.882-0.707
	c8.854,2.936,16.599,7.752,23.315,14.19c1.354,1.297,2.281,2.677,4.18,0.622c1.758-1.902,2.006-3.227-0.205-5.049
	c-6.916-5.698-13.709-11.547-20.488-17.408c-1.857-1.607-3.855-2.789-6.203-3.516c-7.041-2.178-13.64-5.346-19.75-9.439
	c-5.979-4.006-11.106-8.859-14.007-15.652c-0.481-1.128-0.913-2.425,0.627-3.079c1.286-0.546,2.016,0.366,2.554,1.41
	c0.301,0.583,0.587,1.173,0.903,1.748c5.292,9.645,14.3,14.514,23.925,18.654C109.406,85.818,100.245,76.085,98.977,61.218z
	 M235.37,217.931c-1.811-4.835-3.332-9.623-3.482-14.663c-0.082-2.745-1.17-4.612-3.262-6.379
	c-17.113-14.456-34.113-29.044-51.199-43.53c-6.408-5.434-4.881-5.746-10.564,0.84c-2.957,3.43-2.938,3.469,0.504,6.403
	c21.871,18.644,43.746,37.284,65.637,55.907C233.622,217.036,234.097,217.847,235.37,217.931z M96.458,51.394
	c-2.95,0.996-5.124,2.783-7.107,4.831c-0.813,0.841-1.819,1.427-2.856,0.454c-1.057-0.988-0.457-2.024,0.298-2.881
	c0.792-0.898,1.636-1.765,2.541-2.548c3.505-3.033,7.613-5.054,11.737-7.096c6.087-3.015,5.731-4.714,2.792-8.873
	c-2.456-3.474-2.314-3.601-4.951-0.508C86.219,49.661,73.537,64.557,60.857,79.457c-0.567,0.668-1.063,1.398-1.591,2.102
	c5.945-3.694,11.638-7.54,15.583-13.365c0.621-0.917,1.405-1.494,2.461-0.876c1.111,0.649,0.896,1.643,0.287,2.543
	c-0.853,1.261-1.689,2.543-2.661,3.709c-5.928,7.113-13.647,11.829-21.68,16.123c-0.857,0.457-1.802,0.917-2.422,1.625
	c-3.96,4.521-7.849,9.106-11.741,13.688c-0.475,0.558-1.108,1.13-0.587,2.012c1.289,2.175,7.76,3.021,9.416,1.104
	c8.435-9.756,16.823-19.551,25.204-29.352C80.917,69.658,88.681,60.52,96.458,51.394z M161.942,147.846
	c0.004,0.003,0.01,0.006,0.012,0.009c0.99-1.164,1.994-2.316,2.971-3.492c6.688-8.066,6.922-5.896-1.029-13.031
	c-2.346-2.105-3.742-1.678-5.531,0.568c-3.057,3.842-6.396,7.457-9.508,11.258c-6.947,8.492-7.355,5.487,1.396,13.271
	c1.783,1.585,3.205,1.456,4.693-0.35C157.237,153.303,159.606,150.585,161.942,147.846z M102.656,115.86
	c7.06,6.014,14.317,11.812,21.101,18.119c4.261,3.963,9.299,4.373,14.496,4.867c0.489,0.047,1.258-0.072,1.469-0.396
	c0.441-0.674-0.234-1.192-0.699-1.611c-1.296-1.166-2.586-2.352-3.967-3.414C125.206,125.833,113.267,122.038,102.656,115.86z
	 M65.242,99.753c6.947-0.655,12.721,0.477,19.142,2.941c-3.877-3.686-7.449-6.244-10.253-9.621c-0.9-1.083-1.962-1.419-3.028-0.188
	C69.348,94.909,67.624,96.958,65.242,99.753z"/>
<path d="M119.099,119.542c1.005-0.974,2.034-0.731,2.908,0.085c7.616,7.105,17.306,9.357,27.003,11.603
	c0.319,0.074,0.638,0.149,0.958,0.218c1.248,0.26,2.484,0.663,2.163,2.267c-0.329,1.635-1.744,1.452-2.91,1.243
	c-5.918-1.063-11.703-2.62-17.272-4.914c-4.363-1.797-8.478-4.009-11.857-7.389C119.225,121.791,118.352,120.924,119.099,119.542z"
	/>
</svg>
