<?xml version="1.0" encoding="utf-8"?>
<!-- Generator: Adobe Illustrator 16.0.0, SVG Export Plug-In . SVG Version: 6.00 Build 0)  -->
<!DOCTYPE svg PUBLIC "-//W3C//DTD SVG 1.1//EN" "http://www.w3.org/Graphics/SVG/1.1/DTD/svg11.dtd">
<svg version="1.1" id="Layer_1" xmlns="http://www.w3.org/2000/svg" xmlns:xlink="http://www.w3.org/1999/xlink" x="0px" y="0px"
	 width="700px" height="700px" viewBox="0 0 700 700" enable-background="new 0 0 700 700" xml:space="preserve">
<g>
	<path fill-rule="evenodd" clip-rule="evenodd" fill="#FFFFFF" d="M371.378,279.036c-5.898,0.035-5.823-0.231-5.282-5.347
		c1.207-11.413-0.106-22.531-4.698-33.188c-5.402-12.538-12.598-23.711-23.621-32.096c-2.869-2.182-1.923-3.674,0.945-4.724
		c8.303-3.037,16.558-6.218,24.93-9.054c12.291-4.164,24.609-8.265,37.021-12.052c17.196-5.247,34.505-10.128,51.737-15.26
		c15.897-4.734,31.196-10.938,46.204-18.048c14.424-6.833,28.539-14.516,44.272-18.315c8.319-2.01,8.397-2.339,11.643,5.674
		c5.571,13.759,12.651,26.914,17.014,41.143c3.343,10.906,6.07,22,9.063,33.013c0.187,0.688,0.261,1.409,0.461,2.092
		c2.652,9.05,2.719,9.2-5.925,12.774c-21.884,9.047-43.939,17.568-66.604,24.59c-13.773,4.267-27.632,8.204-41.572,11.738
		c-17.936,4.547-36.099,8.154-54.373,11.304c-12.948,2.232-26.061,3.065-38.941,5.595
		C372.675,279.067,371.65,279.019,371.378,279.036z"/>
	<path fill-rule="evenodd" clip-rule="evenodd" fill="#FFFFFF" d="M127.695,575.291c-14.459,1.566-26.547-2.838-36.465-12.934
		c-5.061-5.154-7.66-11.766-8.469-18.73c-2.486-21.4,2.672-41.393,12.236-60.406c5.729-11.393,10.611-23.266,18.3-33.572
		c3.663-4.908,7.619-9.604,11.545-14.309c1.519-1.822,2.69-3.795,0.974-5.764c-1.619-1.855-4.036-1.402-5.995-0.299
		c-3.984,2.238-6.875,5.705-9.646,9.246c-1.589,2.029-4.139,3.068-5.244,0.676c-3.304-7.156-10.511-11.076-14.02-17.973
		c-4.241-8.338-6.016-16.828-2.216-25.799c3.269-7.715,10.455-9.164,16.27-3.25c3.393,3.451,6.841,6.771,11.181,9.051
		c1.645,0.863,3.23,1.684,5.16,1.582c1.5-0.076,3.153,0.131,3.923-1.535c0.862-1.861-0.199-3.313-1.577-4.316
		c-3.893-2.838-7.858-5.57-11.185-9.1c-0.668-0.709-1.753-1.307-1.959-2.127c-1.882-7.514-5.749-14.418-6.856-22.152
		c-1.002-6.998,2.775-11.375,8.463-14.379c6.158-3.253,12.504-6.092,19.199-8.155c6.655-2.052,13.147-4.612,19.071-8.334
		c9.616-6.042,20.129-8.271,31.344-7.825c2.426,0.097,5.399,0.832,5.762-2.889c0.312-3.195-1.938-4.035-4.649-4.702
		c-5.835-1.437-11.512-0.868-17.228,0.514c-5.279,1.277-6.161,0.061-5.091-5.158c2.182-10.65,7.292-19.423,15.46-26.552
		c4.074-3.555,8.961-5.614,13.698-7.95c1.396-0.688,2.876-0.128,4.145,0.946c7.921,6.706,12.852,15.054,14.462,25.387
		c1.561,10.013-0.209,19.401-4.754,28.352c-0.847,1.667-1.287,3.376-1.229,5.273c0.28,9.037-7.36,20.945-15.503,24.498
		c-3.143,1.371-4.413-0.482-5.113-2.852c-1.062-3.588-3.133-6.566-5.166-9.584c-1.406-2.086-3.124-3.875-5.455-5.001
		c-2.561-1.237-5.285-3.047-7.673-0.17c-2.299,2.772,0.409,5.021,1.716,7.063c2.58,4.032,5.287,7.913,7.554,12.204
		c6.122,11.584,3.805,23.891,3.189,35.779c-0.559,10.77-12.175,18.594-23.097,17.645c-2.561-0.223-4.259,1.031-5.76,3.133
		c-6.439,9.012-3.729,18.135-0.169,27.023c4.988,12.449,14.243,21.938,23.333,31.385c7.84,8.148,16.097,15.848,21.353,26.131
		c2.724,5.328,4.553,10.457,2.882,16.623c-2.453,9.053-2.813,18.752-8.186,26.871c-7.599,11.482-19.07,17.795-31.494,22.434
		C145.976,574.553,136.875,576.633,127.695,575.291z"/>
	<path fill-rule="evenodd" clip-rule="evenodd" fill="#FFFFFF" d="M347.959,295.842c5.26-2.665,11.094-2.776,16.838-3.187
		c13.059-0.934,25.99-2.938,38.895-4.95c13.073-2.039,26.077-4.57,39.053-7.259c21.567-4.469,42.955-9.73,64.016-15.998
		c27.125-8.073,53.987-17.098,79.974-28.507c6.216-2.729,12.576-5.117,18.613-8.26c2.591-1.35,4.522-1.076,5.987,2.021
		c4.588,9.696,4.659,9.599-4.272,15.84c-16.705,11.673-35.015,19.989-54.207,26.656c-24.349,8.457-49.482,13.632-74.764,18.012
		c-21.193,3.671-42.635,5.898-63.845,9.484c-16.306,2.757-32.582,5.837-48.618,10.053c-12.989,3.414-25.815,7.311-38.516,11.649
		c-0.783,0.268-1.559,0.558-2.334,0.849c-2.338,0.877-4.848,4.23-6.955,1.93c-1.877-2.048,1.348-4.662,2.236-7.042
		c3.77-10.099,4.871-20.332,3.864-31.176c-1.319-14.201-5.852-27.187-12.37-39.578c-8.633-16.415-20.221-30.343-35.921-40.563
		c-0.695-0.452-1.39-0.904-2.086-1.354c-1.842-1.189-5.379-1.029-5.057-3.917c0.283-2.54,3.601-2.538,5.671-3.385
		c26.701-10.918,53.44-21.744,80.15-32.639c24.4-9.954,48.778-19.963,73.164-29.952c26.208-10.736,52.584-21.048,79.278-30.504
		c12.019-4.258,24.499-7.24,35.93-13.092c3.505-1.794,7.29-3.026,10.35-5.738c2.86-2.536,5.313-1.494,6.636,1.815
		c1.971,4.925,3.637,9.971,5.54,14.924c1.004,2.615-0.393,3.87-2.506,4.404c-13.899,3.513-27.014,9.068-39.952,15.109
		c-11.404,5.324-22.869,10.517-34.237,15.916c-13.979,6.637-28.926,10.414-43.602,14.991c-10.891,3.396-21.714,7.085-32.76,9.885
		c-15.101,3.826-29.695,9.236-44.637,13.556c-12.373,3.577-24.302,8.704-36.4,13.219c-6.506,2.428-12.946,5.031-19.432,7.515
		c-1.688,0.647-3.875,0.875-4.085,3.075c-0.195,2.051,1.61,2.989,3.13,4.098c20.994,15.316,33.921,35.251,36.811,61.632
		c0.979,8.938-1.237,17.062-2.646,25.474C344.413,293.702,344.782,295.351,347.959,295.842z"/>
	<path fill-rule="evenodd" clip-rule="evenodd" fill="#FFFFFF" d="M247.733,240.093c-11.323,0.68-18.743,4.393-26.647,6.096
		c-3.512,0.757-7.19,1.225-10.512,2.928c-1.324,0.679-3.15,0.802-4.21-0.425c-0.966-1.118-0.053-2.718,0.508-3.752
		c5.381-9.902,10.145-20.241,19.044-27.748c5.747-4.847,12.223-7.909,19.794-8.319c2.817-0.153,5.592-0.375,8.402-0.781
		c6.591-0.955,11.847,2.822,16.749,6.308c23.495,16.71,37.25,39.835,42.095,67.938c2.704,15.684,1.158,31.26-9.821,44.122
		c-7.047,8.255-15.222,14.414-27.183,14.258c-7.264-0.095-14.487,0.401-21.641-1.216c-1.29-0.292-2.583-0.592-3.842-0.99
		c-1.387-0.438-3.238-0.682-3.285-2.494c-0.049-1.916,1.864-2.108,3.253-2.489c7.355-2.021,14.585-4.357,21.664-7.251
		c3.716-1.52,6.012-3.913,7.44-7.474c4.198-10.466,3.739-21.142,1.122-31.79c-3.701-15.06-10.092-28.827-21.051-40.067
		C255.611,242.842,250.998,239.485,247.733,240.093z"/>
	<path fill-rule="evenodd" clip-rule="evenodd" fill="#FFFFFF" d="M562.509,70.605c0.151-1.276,0.051-2.028,0.337-2.579
		c2.762-5.31,8.323-5.523,13.13-6.957c3.467-1.035,6.045,0.674,8.067,3.52c4.679,6.579,7.271,14.154,10.016,21.582
		c5.115,13.838,8.938,28.102,13.17,42.232c4.844,16.177,10.585,32.054,17.303,47.574c7.305,16.881,14.376,33.863,21.64,50.762
		c1.222,2.841,0.586,4.675-1.981,6.229c-2.979,1.802-6.064,3.531-8.697,5.769c-3.322,2.824-5.796,1.805-7.996-1.094
		c-3.321-4.375-5.867-9.267-7.959-14.295c-5.226-12.565-8.443-25.784-11.717-38.942c-3.213-12.912-7.53-25.382-12.991-37.495
		c-9.252-20.523-18.322-41.125-26.323-62.182C566.629,79.79,564.382,74.992,562.509,70.605z"/>
	<path fill-rule="evenodd" clip-rule="evenodd" fill="#FFFFFF" d="M257.382,298.583c-0.456,4.4-1.049,10.156-1.656,15.912
		c-0.051,0.49-0.411,1.059-0.258,1.444c2.926,7.365-2.243,8.614-7.411,10.179c-2.994,0.906-5.81,2.41-8.681,3.699
		c-1.307,0.585-2.518,0.82-3.688-0.247c-1.333-1.216-0.518-2.426,0.007-3.622c8.152-18.589,4.639-35.819-6.197-52.121
		c-3.146-4.734-7.051-8.755-12.151-11.543c-1.975-1.08-5.675-2.103-3.72-5.086c1.538-2.345,5.035-3.306,8.049-1.436
		c4.575,2.838,8.199,6.814,11.42,11.004c8.103,10.539,12.574,22.429,12.206,35.908c-0.022,0.83-0.024,1.671,0.084,2.492
		c0.208,1.59,0.864,3.077,2.661,3.048c1.485-0.024,2.127-1.344,2.464-2.733c1.521-6.269,0.951-12.538-0.709-18.598
		c-3.033-11.074-8.91-20.589-16.916-28.827c-1.258-1.294-3.918-2.452-2.45-4.777c1.488-2.355,4.361-1.899,6.36-0.916
		c7.394,3.639,12.769,9.313,15.716,17.111C255.889,278.407,257.068,287.725,257.382,298.583z"/>
	<path fill-rule="evenodd" clip-rule="evenodd" fill="#FFFFFF" d="M230.106,305.43c1.065,7.485-0.731,14.277-4.2,20.725
		c-0.876,1.629-1.79,3.193-3.475,4.124c-1.8,0.994-3.861,1.911-5.646,0.685c-1.924-1.32-1.471-3.732-0.731-5.503
		c7.861-18.812-4.26-43.978-17.513-53.079c-1.885-1.294-3.557-2.711-1.898-5.268c1.586-2.447,3.466-4.927,6.766-3.487
		c9.871,4.307,17.805,10.881,22.507,20.792C229.076,291.079,231.392,297.976,230.106,305.43z"/>
	<path fill-rule="evenodd" clip-rule="evenodd" fill="#FFFFFF" d="M273.258,302.728c-0.348,3.838-0.578,7.98-1.141,12.077
		c-0.438,3.191-6.175,6.811-9.162,6.031c-2.278-0.594-1.939-2.046-1.515-3.875c3.049-13.127,3.176-26.359,0.05-39.428
		c-2.299-9.609-6.189-18.571-14.678-24.66c-0.929-0.666-1.663-1.622-2.427-2.496c-0.592-0.676-0.736-1.552-0.342-2.333
		c0.613-1.217,1.605-0.626,2.581-0.455c4.497,0.786,7.396,3.981,9.791,7.274C266.706,269.02,272.33,284.927,273.258,302.728z"/>
</g>
</svg>
