<?xml version="1.0" encoding="utf-8"?>
<!-- Generator: Adobe Illustrator 16.0.0, SVG Export Plug-In . SVG Version: 6.00 Build 0)  -->
<!DOCTYPE svg PUBLIC "-//W3C//DTD SVG 1.1//EN" "http://www.w3.org/Graphics/SVG/1.1/DTD/svg11.dtd">
<svg version="1.1" id="Layer_1" xmlns="http://www.w3.org/2000/svg" xmlns:xlink="http://www.w3.org/1999/xlink" x="0px" y="0px"
	 width="1691px" height="1677px" viewBox="0 0 1691 1677" enable-background="new 0 0 1691 1677" xml:space="preserve">
<g>
	<path fill-rule="evenodd" clip-rule="evenodd" fill="#FFFFFF" d="M719.021,946.851c21.665,17.166,42.524,35.348,63.74,53.079
		c15.339,12.818,31.109,25.16,45.921,38.562c28.458,25.75,59.763,47.892,89.56,71.936
		c28.995,23.399,137.165,106.289,151.407,118.757c11.495,10.061,22.265,21.052,34.545,30.192c4.867,3.623,5.668,7.457,4.082,12.906
		c-7.638,26.213-16.133,51.924-28.854,76.386c-10.123,19.466-20.168,38.96-30.84,58.136c-1.804,3.243-4.125,6.023-6.409,8.886
		c-9.954,12.482-20.804,24.278-28.206,38.681c-2.397,4.665-5.676,8.98-9.98,12.362c-6.989,5.489-9.303,14.794-15.663,20.516
		c-10.781,9.699-16.108,23.711-26.723,33.154c-16.445,14.632-29.999,32.059-46.523,46.57c-8.241,7.237-14.479,16.456-23.313,23.248
		c-12.628,9.704-24.624,20.226-37.073,30.17c-7.792,6.225-17.395,9.766-24.974,16.39c-2.501,2.184-5.145,4.259-7.942,6.038
		c-6.739,4.285-13.601,3.214-18.69-2.971c-14.64-17.785-232.487-174.821-251.129-190.433c-21.43-17.947-44.148-34.349-65.777-52.066
		c-40.977-33.57-81.812-67.298-123.844-99.559c-18.999-14.584-148.963-135.964-168.492-151.624
		c-13.976-11.208-26.094-24.719-39.175-37.06c-13.311-12.558-26.89-24.832-40.162-37.431c-14.248-13.524-27.443-28.171-43.01-40.285
		c-3.361-2.613-4.116-5.87-2.703-9.759c1.138-3.131,1.785-6.581,3.532-9.327c10.518-16.535,19.285-34.131,30.941-49.988
		c11.823-16.083,23.189-32.509,34.574-48.907c2.667-3.841,5.159-7.761,8.546-11.022c7.955-7.661,14.12-16.725,20.797-25.456
		c10.294-13.459,22.29-25.602,33.074-38.704c7.025-8.538,14.168-16.864,23.354-23.073c7.538-5.095,13.286-11.991,19.792-18.146
		c16.677-15.771,32.063-32.848,47.678-49.562c15.589-16.688,33.403-30.448,50.528-45.127c11.034-9.459,23.233-17.588,35.152-25.97
		c6.528-4.591,9.439-4.361,15.991,1.377c25.333,22.18,52.791,41.719,78.412,63.548C487.894,755.527,691.349,924.927,719.021,946.851
		z"/>
	<path fill-rule="evenodd" clip-rule="evenodd" fill="#FFFFFF" d="M177.78,797.393c-10.804,18.569-26.021,33.892-38.721,52.877
		c6.342-0.346,9.483-3.287,12.094-6.53c12.507-15.532,25.548-30.549,37.301-46.799c15.8-21.847,29.09-45.538,46.778-65.926
		c12.204-14.065,23.082-29.276,36.724-42.157c6.228-5.88,12-12.497,15.929-20.386c0.878-1.763,2.038-3.504,3.443-4.867
		c18.833-18.271,35.702-38.377,53.762-57.349c14.875-15.628,28.114-32.651,43.053-48.166c9.207-9.561,18.285-19.275,29.109-27.164
		c7.522-5.482,15.266-5.75,24.422-4.912c14.884,1.364,24.401,11.23,35.474,18.69c20.462,13.79,38.477,30.751,58.059,45.703
		c9.79,7.476,19.466,15.057,29.6,22.097c8.433,5.86,16.556,12.384,23.897,19.554c18.677,18.243,50.448,50.444,63.746,62.078
		c13.031,11.4,26.278,22.479,39.671,33.446c15.724,12.878,31.51,25.677,47.297,38.479c13.406,10.873,26.897,21.581,40.857,31.781
		c22.297,16.29,43.739,33.748,65.53,50.728c16.788,13.082,33.59,26.146,50.307,39.32c3.388,2.668,6.252,6.004,9.642,8.671
		c25.05,19.716,287.753,217.073,299.776,229.054c5.655,5.635,11.22,11.359,16.784,17.086c9.526,9.803,19.947,18.568,30.929,26.674
		c6.681,4.932,9.014,10.519,6.471,18.219c-2.282,6.915-5.181,13.502-9.077,19.869c-18.974,31.006-41.492,59.521-61.973,89.459
		c-11.07,16.182-22.013,32.451-33.157,48.578c-2.644,3.825-5.952,7.184-8.825,10.856c-10.884,13.913-19.908,29.076-29.531,43.843
		c-10.688,16.406-20.723,33.193-32.238,49.123c-20.304,28.088-43.183,54.1-63.929,81.801c-2.391,3.191-4.59,6.543-6.681,9.94
		c-1.689,2.749-2.333,5.955,0.522,8.143c3.27,2.503,5.653-0.26,7.505-2.551c5.442-6.737,10.592-13.712,16.021-20.46
		c13.148-16.348,27.338-31.96,39.291-49.133c9.483-13.625,20.087-26.455,28.778-40.66c11.466-18.738,23.887-36.857,36.382-54.933
		c17.209-24.891,35.979-48.781,52.052-74.321c13.919-22.115,31.983-40.857,46.088-62.616c11.367-17.536,23.5-34.64,31.965-53.908
		c3.626-8.255,1.718-19.302-5.71-23.27c-10.666-5.697-17.254-15.474-25.813-23.214c-19.237-17.396-36.721-36.66-58.115-51.756
		c-10.267-7.245-188.858-137.882-209.041-153.672c-42.51-33.258-83.295-68.638-126.033-101.634
		c-44.799-34.591-89.742-68.999-134.036-104.265c-29.996-23.88-76.953-75.656-101.518-95.075
		c-13.743-10.865-27.576-21.851-40.854-33.447c-15.218-13.292-32.042-24.745-48.203-36.954c-6.106-4.611-12.391-8.991-18.442-13.671
		c-11.323-8.755-22.442-17.774-33.841-26.428c-4.514-3.428-9.777-5.647-15.363-6.951c-2.917-0.679-6.019-1.01-8.681-2.26
		c-10.508-4.94-20.122-2.443-29.429,3.064c-10.986,6.5-20.363,14.898-28.88,24.38c-24.036,26.755-46.967,54.482-71.407,80.892
		c-12.655,13.676-24.177,28.399-36.816,42.093c-15.545,16.84-31.743,33.08-47.616,49.619c-8.549,8.908-16.447,18.313-22.966,28.883
		c-5.604,9.086-12.287,17.426-19.338,25.446c-1.095,1.245-2.459,2.663-4.204,1.336c-1.735-1.319-0.897-3.009,0.235-4.304
		c11.027-12.621,18.668-27.539,27.957-41.335c15.345-22.791,35.267-41.502,53.642-61.602c17.043-18.644,35.045-36.437,50.605-56.403
		c7.339-9.418,12.843-20.051,21.156-28.941c12.955-13.854,24.683-28.854,37-43.309c6.909-8.108,13.873-16.049,18.787-25.731
		c4.761-9.379,13.422-15.671,21.436-22.044c5.309-4.222,12.554-4.565,19.234-3.123c13.383,2.889,26.059,6.802,36.951,16.306
		c19.333,16.869,41.639,29.795,62.502,44.646c12.469,8.874,24.08,18.962,35.985,28.616c26.141,21.199,92.611,89.19,114.926,106.12
		c9.326,7.078,17.053,15.923,25.254,24.088c9.487,9.447,19.577,18.021,29.807,26.524c17.674,14.693,35.623,29.025,54.832,41.711
		c7.646,5.049,9.209,4.482,11.062-5.141c0.491-2.551,1.811-4.031,3.683-5.581c11.805-9.762,22.32-20.729,30.408-33.826
		c5.801-9.394,12.787-17.84,20.335-25.823c2.895-3.063,4.344-6.18,4.611-10.542c1.827-29.763,7.432-58.851,18.813-86.455
		c6.824-16.547,18.13-30.258,32.805-40.673c25.741-18.27,51.777-36.121,77.634-54.229c9.794-6.858,19.374-14.023,29.156-20.898
		c14.222-9.996,23.854-24.167,33.628-37.955c13.292-18.746,24.646-38.85,33.97-59.817c8.628-19.399,4.193-80.241,8.202-90.13
		c3.33-8.211,9.611-14.616,15.617-20.413c10.516-10.147,18.969-21.276,24.278-34.765c1.56-3.965,3.767-7.121,7.478-8.919
		c4.097-1.987,6.992-5.048,9.218-8.831c5.715-9.719,14.335-16.563,23.231-22.958c19.451-13.98,39.888-26.572,61.155-37.441
		c16.522-8.445,33.231-16.716,51.036-22.731c15.758-5.324,31.656-10.11,47.535-14.977c10.863-3.331,22.3-3.843,33.482-5.553
		c5.377-0.822,10.247,1.105,15.105,3.906c21.9,12.625,35.701,32.605,48.658,53.229c4.844,7.711,4.021,17.33,5.613,26.079
		c4.473,24.597,2.684,49.499-2.54,73.433c-5.268,24.143-13.801,47.675-25.61,69.817c-6.733,12.628-12.883,25.507-21.644,36.942
		c-1.633,2.128-2.896,4.527-5.367,5.737c-8.311,4.07-10.84,11.404-10.801,19.825c0.022,4.704-0.733,8.011-5.399,10.528
		c-3.09,1.667-5.632,4.896-9.011,6.104c-9.211,3.293-14.941,10.438-18.849,18.438c-5.554,11.369-13.746,20.355-22.278,29.246
		c-7.374,7.682-73.711,18.995-90.354,34.513c-7.559,7.046-14.049,15.03-21.676,22.016c-27.078,24.804-46.176,54.831-57.152,89.965
		c-8.948,28.642-19.883,56.541-32.557,83.715c-7.464,16.006-15.827,31.721-28.771,44.086c-15.683,14.983-32.839,28.064-53.01,36.694
		c-2.874,1.229-5.715,1.619-8.758,1.043c-6.603-1.251-13.181-1.767-19.723,0.473c-1.221,0.419-2.736,0.744-3.915,0.408
		c-9.461-2.691-14.407,2.578-18.016,10.104c-2.479,5.174-5.6,9.939-9.719,13.845c-11.938,11.312-20.51,25.34-31.031,37.784
		c-4.782,5.656-7.054,12.757-11.409,18.68c-2.921,3.974-0.231,7.795,2.573,10.659c3.48,3.557,7.496,6.59,11.297,9.829
		c7.562,6.446,16.128,11.834,21.513,20.566c1.063,1.721,2.463,3.206,4.401,3.938c13.085,4.937,23.311,14.284,33.629,23.045
		c18.056,15.327,203.156,146.063,217.782,159.239c6.91,6.227,15.042,11.136,22.06,17.079c16.219,13.734,32.873,27.141,47.042,43.134
		c6.31,7.121,8.606,15.608,6.903,25.115c-2.205,12.321-6.524,23.599-14.541,33.478c-13.857,17.075-27.331,34.461-41.062,51.641
		c-18.925,23.682-36.745,48.195-54.405,72.814c-10.869,15.154-22.019,30.039-33.715,44.582
		c-10.613,13.197-19.505,27.764-29.679,41.334c-5.992,7.991-11.808,15.756-15.723,25.202c-2.562,6.18-8.138,11.257-12.864,16.366
		c-16.555,17.893-29.93,38.297-45.429,57.029c-12.953,15.654-25.555,31.568-40.551,45.375c-0.979,0.902-1.935,1.854-3.014,2.625
		c-11.588,8.281-21.91,4.193-24.954-9.784c-0.733-3.368,0.869-5.885,2.696-8.232c12.288-15.799,23.17-32.557,33.745-49.514
		c9.304-14.92,19.095-29.518,27.607-44.964c4.746-8.608,9.853-17.32,17.174-24.322c7.021-6.719,11.511-15.444,17.676-22.861
		c7.662-9.22,15.137-18.595,22.698-27.897c12.008-14.771,21.425-31.295,31.723-47.21c14.839-22.937,30.878-44.982,47.364-66.753
		c10.039-13.258,18.204-27.871,28.402-41.06c2.65-3.427,4.777-7.364,7.851-10.336c9.551-9.233,11.055-21.699,13.257-33.566
		c1.293-6.966-2.021-13.829-7.716-18.646c-19.329-16.353-37.032-34.475-56.2-51.035c-14.35-12.4-242.691-186.751-259.045-197.689
		c-7.58-5.07-12.902-12.545-19.973-18.077c-20.195-15.802-39.288-32.992-60.355-47.695c-46.771-32.642-89.59-70.299-134.202-105.684
		c-19.043-15.103-37.911-30.452-56.933-45.573c-17.411-13.841-57.172-54.503-75.115-68.841c-8.287-6.62-16.878-12.73-24.603-20.165
		c-8.591-8.27-18.48-15.254-28.145-22.33c-17.99-13.176-36.653-25.468-54.231-39.16c-14.453-11.259-29.259-8.417-44.621-4.083
		c-1.199,0.337-2.232,1.401-3.241,2.247c-30.247,25.316-56.629,54.221-80.833,85.331c-7.678,9.869-16.724,18.9-24.718,28.526
		c-30.228,36.401-63.995,69.714-92.941,107.198c-11.731,7.685-15.504,21.224-23.351,31.768
		c-7.952,10.686-17.046,20.495-24.188,31.804c-7.174,11.358-17.085,20.377-26.076,30.18c-3.52,3.838-7.158,4.291-11.325,0.815
		c-3.32-2.771-7.083-5.015-10.375-7.816c-4.89-4.166-5.242-7.839-0.349-11.453c3.824-2.825,6.941-6.138,10.061-9.573
		c1.6-1.763,3.477-3.555,5.882-3.437c7.037,0.345,10.634-4.33,14.521-9.003C158.313,817.38,166.821,806.335,177.78,797.393z
		 M955.713,749.472c0.134-0.154,0.269-0.308,0.402-0.463c1.55,1.262,3.229,2.397,4.631,3.806
		c8.603,8.664,19.345,11.557,31.064,10.971c10.383-0.519,21.234,1.743,30.852-4.534c1.274-0.834,3.204-0.753,4.849-0.914
		c14.641-1.441,26.288-8.546,36.523-18.711c17.211-17.094,27.146-38.566,35.804-60.546c8.896-22.581,17.154-45.433,24.975-68.438
		c3.077-9.053,7.09-17.901,12.021-26.287c9.288-15.801,20.006-30.617,30.282-45.75c7.379-10.867,17.013-19.505,26.306-28.493
		c7.396-7.154,94.367-37.53,104.669-45.359c4.965-3.773,9.018-8.826,13.173-13.572c4.715-5.387,4.327-10.144-1.33-14.51
		c-4.192-3.237-8.666-6.089-13.479-8.514c-29.441-14.827-58.691-30.015-84.771-50.501c-19.689-15.467-38.079-32.229-53.427-52.185
		c-5.062-6.582-9.491-13.687-15.516-19.531c-4.829-4.685-6.997-4.679-11.046,0.528c-0.81,1.042-1.341,2.295-2.089,3.392
		c-9.379,13.759-16.479,127.04-31.019,151.994c-9.456,16.23-21.446,29.659-35.655,41.146
		c-12.896,10.426-26.945,19.444-40.635,28.869c-24.078,16.577-48.491,32.673-71.997,50.078
		c-12.654,9.369-23.444,20.056-31.337,34.127c-8.918,15.897-15.238,32.313-18.588,50.208c-3.529,18.861,2.6,34.44,15.445,47.274
		C928.463,726.186,942.364,737.552,955.713,749.472z M1397.12,176.288c-15.169-13.378-33.601-13.869-51.959-12.474
		c-16.351,1.242-31.735,7.106-46.66,13.82c-10.007,4.502-19.679,9.722-29.507,14.554c-24.093,11.846-44.78,28.632-66.398,44.025
		c-11.443,8.147-12.545,17.937-6.08,30.401c2.317,4.468,5.499,8.279,8.65,12.157c7.635,9.392,18.053,15.801,26.236,24.512
		c12.862,13.69,29.576,22.417,43.426,34.82c10.48,9.384,23.307,15.372,35.318,22.501c12.578,7.467,25.465,14.37,38.917,20.143
		c8.311,3.567,13.716,1.796,18.461-5.911c1.562-2.536,3.206-5.164,4.042-7.979c5.189-17.459,17.059-32.32,19.635-50.83
		c0.389-2.794,2.451-5.43,4.03-7.957c1.232-1.972,2.726-3.733,3.332-6.076c3.665-14.14,8.502-28.092,10.753-42.451
		c2.023-12.897,7.576-25.683,3.753-39.233c-0.328-1.162,0.54-2.609,0.531-3.921C1413.498,200.793,1409.016,186.993,1397.12,176.288z
		 M875.801,834.3c3.618,2.944,7.228,5.899,10.855,8.832c8.542,6.904,16.679,14.318,26.212,19.952
		c2.778,1.642,5.311,3.029,8.206,0.926c7.522-5.472,14.785-11.487,19.488-19.506c3.536-6.03,7.241-11.914,11.018-17.788
		c5.563-8.653,11.195-17.298,16.118-26.319c4.245-7.778,2.368-12.406-4.786-17.47c-8.128-5.753-16.841-10.691-24.849-16.461
		c-18.329-13.207-36.044-27.329-49.584-45.88c-4.223-5.785-5.308-5.666-11.458-1.976c-10.586,6.349-17.396,16.344-24.637,25.821
		c-7.487,9.798-14.83,19.637-24.255,27.745c-2.219,1.91-3.836,4.574-5.52,7.037c-1.469,2.148-1.306,4.332,0.534,6.364
		c3.343,3.695,6.298,7.802,9.966,11.131C847.151,809.45,859.848,823.734,875.801,834.3z M1214.037,352.608
		c9.349,8.515,20.516,15.179,31.271,22.452c15.993,10.818,32.731,20.251,49.818,29.23c11.306,5.94,24.179,9.648,32.604,20.359
		c1.317,1.676,3.456,1.574,5.548,1.399c8.251-0.686,16.254-11.123,14.734-19.31c-0.589-3.17-1.997-5.918-5.2-6.732
		c-10.882-2.77-18.76-10.907-28.526-15.707c-6.858-3.37-14.332-5.188-20.857-9.41c-10.326-6.68-20.989-12.843-31.566-19.129
		c-19.549-11.615-37.118-25.713-53.441-41.519c-11.75-11.379-21.527-24.465-32.605-36.409c-4.849-5.226-9.792-10.011-17.723-9.464
		c-3.111,0.214-4.793,1.364-5.186,4.723c-0.726,6.191,0.195,11.827,3.641,17.156c4.188,6.483,10.404,11.356,14.544,17.681
		C1182.566,325.454,1197.193,339.77,1214.037,352.608z"/>
	<path fill-rule="evenodd" clip-rule="evenodd" fill="#FFFFFF" d="M1138.275,1478.351c3.34,2.718,6.432,4.787,8.967,7.397
		c4.272,4.4,4.4,7.336,0.255,12.129c-3.75,4.335-6.584,9.13-9.322,14.117c-4.907,8.94-13.507,14.614-20.396,21.794
		c-3.923,4.085-7.791,8.142-11.381,12.544c-13.262,16.269-26.706,32.392-40.21,48.46c-4.529,5.391-8.98,6.322-14.851,2.349
		c-4.718-3.194-9.739-5.717-14.644-8.5c-7.368-4.183-7.788-5.154-1.827-10.431c8.31-7.359,15.033-15.992,21.573-24.844
		c18.786-25.426,37.639-50.805,56.415-76.238c1.599-2.166,3.341-4.061,5.468-5.742c3.364-2.658,6.506-2.879,9.947-0.286
		C1131.729,1473.706,1135.281,1476.188,1138.275,1478.351z M1105.016,1523.6c5.958-7.319,10.715-13.315,15.654-19.159
		c1.986-2.348,3.711-4.686,3.887-7.869c0.121-2.189-0.641-3.965-2.648-4.917c-1.642-0.78-3.313-0.38-4.583,0.865
		c-1.899,1.862-3.956,3.667-5.43,5.845c-7.494,11.075-17.095,20.414-25.24,30.943c-1.62,2.096-3.435,4.164-4.514,6.537
		c-4.034,8.87-9.567,16.713-15.716,24.188c-1.688,2.053-3.355,4.154-4.77,6.397c-1.688,2.679-0.927,5.155,1.482,6.993
		c2.552,1.945,4.98,1.531,6.929-1.012c1.414-1.846,2.674-3.811,4.051-5.687C1084.939,1551.994,1093.86,1535.896,1105.016,1523.6z"/>
	<path fill-rule="evenodd" clip-rule="evenodd" fill="#FFFFFF" d="M184.182,764.172c-8.51,11.768-17.651,19.209-24.998,28.216
		c-12.414,15.218-26.236,29.047-40.398,42.581c-6.631,6.336-8.222,5.774-12.895-2.467c-7.796-13.747-5.482-26.165,3.942-37.871
		c9.598-11.922,19.34-23.73,29.173-35.46c2.112-2.518,4.66-4.813,7.388-6.647c14.513-9.753,26.418-22.152,37.277-35.717
		c6.465-8.076,9.122-8.159,16.949-1.41c10.708,9.233,11.034,11.685,2.958,23.242C196.912,748.176,190.003,757.531,184.182,764.172z
		 M192.426,731.519c-2.994,0.571-5.651,1.892-7.428,4.18c-5.472,7.047-12.657,12.435-17.691,20.063
		c-4.687,7.103-9.422,14.512-15.941,20.255c-7.542,6.646-12.857,15.152-19.457,22.578c-1.527,1.718-2.919,3.653-1.881,6.656
		c5.261-1.243,9.84-3.622,13.277-7.872c7.92-9.798,15.749-19.673,23.613-29.518c3.088-3.865,4.299-8.984,8.453-12.175
		c5.813-4.464,9.079-11.359,14.99-15.841C192.604,738.143,194.345,735.428,192.426,731.519z"/>
	<path fill-rule="evenodd" clip-rule="evenodd" fill="#FFFFFF" d="M1012.383,1479.902c3.553-4.365,7.127-8.716,10.651-13.104
		c1.882-2.342,3.866-4.497,6.559-5.994c3.059-1.701,6.521-3.066,9.323-0.817c2.735,2.193,0.82,5.506-0.098,8.32
		c-1.757,5.394-4.173,10.346-7.716,14.903c-5.492,7.065-10.47,14.53-15.654,21.834c-2.607,3.674-5.044,4.379-8.855,0.94
		c-8.964-8.083-9.112-7.879-0.87-17.378c2.391-2.756,4.622-5.65,6.926-8.481C1012.56,1480.051,1012.471,1479.977,1012.383,1479.902z
		"/>
	<path fill-rule="evenodd" clip-rule="evenodd" fill="#FFFFFF" d="M185.124,820.772c3.838-4.088,8.002-7.926,10.232-13.271
		c0.731-1.756,2.106-3.435,3.6-4.634c2.046-1.644,4.532-3.059,7.272-1.576c3.132,1.694,2.042,4.432,1.354,6.993
		c-1.672,6.222-5.555,11.246-9.202,16.318c-3.074,4.276-6.612,8.186-9.406,12.721c-2.691,4.37-6.848,5.049-10.925,2.217
		c-4.175-2.901-2.309-6.488-0.334-9.516C179.863,826.73,182.628,823.839,185.124,820.772z"/>
	<path fill-rule="evenodd" clip-rule="evenodd" fill="#FFFFFF" d="M1266.361,440.443c-5.21,5.082-10.129,10.522-17.169,13.188
		c-2.161,0.818-4.676,2.272-6.112-0.459c-1.388-2.637,1.188-4.136,2.953-5.525c5.186-4.082,10.389-8.144,15.695-12.067
		c1.945-1.439,4.073-4.646,6.688-1.765C1270.748,436.386,1268.216,438.604,1266.361,440.443z"/>
	<path fill-rule="evenodd" clip-rule="evenodd" fill="#FFFFFF" d="M1238.656,291.423c1.941-1.35,3.791-3.793,6.695-2.253
		c1.748,0.926,2.261,10.541,0.732,12.228c-1.796,1.983-3.563,0.647-5.107-0.537C1237.408,298.13,1236.476,294.366,1238.656,291.423z
		"/>
	<path fill-rule="evenodd" clip-rule="evenodd" fill="#FFFFFF" d="M1300.146,300.778c-4.694,7.429-8.237,13.2-11.974,18.842
		c-1.052,1.587-2.053,3.502-4.318,3.896C1286.871,315.616,1293.089,306.528,1300.146,300.778z"/>
	<path fill-rule="evenodd" clip-rule="evenodd" fill="#FFFFFF" d="M1292.07,268.965c-3.727,7.037-8.426,13.204-14.436,19.18
		C1279.028,281.647,1283.244,275.774,1292.07,268.965z"/>
	<path fill-rule="evenodd" clip-rule="evenodd" fill="#FFFFFF" d="M865.873,776.572c4.963,8.049,11.918,10.591,16.648,16.233
		c-4.725,0.11-6.613-5.889-11.108-3.748c-0.667,1.764-0.001,2.951,0.864,3.893c6.999,7.599,13.258,15.618,17.468,25.23
		c2.491,5.688,8.673,8.074,13.144,11.991c4.252,3.722,8.8,7.105,13.252,10.595c2.413,1.89,3.205,4.154,1.826,6.979
		c-1.229,2.514-3.144,3.525-5.607,1.814c-1.615-1.121-3.257-2.475-4.303-4.101c-7.563-11.763-18.288-20.299-29.682-27.741
		c-13.771-8.997-25.014-20.757-37.263-31.434c-3.211-2.801-3.394-5.535-0.823-8.569c3.222-3.802,6.413-7.664,9.978-11.132
		c7.648-7.441,14.577-15.506,21.216-23.821c4.991-6.252,4.872-6.347,13.049-4.174c1.487-2.081,0.424-3.723-0.904-5.337
		c-1.872-2.277-2.904-4.801-0.137-6.937c2.846-2.194,4.792-0.222,6.631,2.012c3.789,4.604,7.615,9.185,11.61,13.608
		c6.015,6.663,12.221,13.155,18.283,19.777c3.822,4.177,7.618,8.278,12.826,10.91c1.675,0.848,5.327,1.96,3.087,4.952
		c-1.932,2.581-4.175-0.065-6.055-1.112c-3.195-1.779-6.366-3.632-9.387-5.689c-2.814-1.918-5.85-2.924-10.313-3.643
		c3.795,9.067,12.55,12.269,17.506,18.854c5.25,6.975,12.275,12.143,18.207,17.768c-16.013-7.309-28.927-21.245-46.913-26.083
		c-1.778,3.964,1.009,5.361,2.665,7.192c1.108,1.228,2.584,2.147,3.584,3.443c1.361,1.767,3.707,3.847,2.054,6.059
		c-1.768,2.365-4.412,0.791-6.15-0.661c-7-5.848-15.67-8.728-23.338-13.377C874.819,778.525,871.658,776.74,865.873,776.572z"/>
</g>
</svg>
