<?xml version="1.0" encoding="utf-8"?>
<!-- Generator: Adobe Illustrator 16.0.0, SVG Export Plug-In . SVG Version: 6.00 Build 0)  -->
<!DOCTYPE svg PUBLIC "-//W3C//DTD SVG 1.1//EN" "http://www.w3.org/Graphics/SVG/1.1/DTD/svg11.dtd">
<svg version="1.1" id="Layer_1" xmlns="http://www.w3.org/2000/svg" xmlns:xlink="http://www.w3.org/1999/xlink" x="0px" y="0px"
	 width="330.033px" height="303.125px" viewBox="0 0 330.033 303.125" enable-background="new 0 0 330.033 303.125"
	 xml:space="preserve">
<path fill-rule="evenodd" clip-rule="evenodd" d="M1315.323,735.251c0.007-42.665,0.046-85.33-0.051-127.995
	c-0.011-4.502,1.129-7.584,5.048-10.485c8.534-6.317,10.22-16.245,10.713-25.934c0.668-13.134,0.272-26.322,0.338-39.487
	c0.008-1.734-0.313-3.312-1.838-4.41c-4.485-3.23-5.92-7.895-5.973-13.112c-0.024-2.419-0.961-3.986-3.046-5.262
	c-4.767-2.917-6.563-7.543-6.005-12.852c1.916-18.21,4.047-36.397,6.103-54.592c0.056-0.495,0.03-1.098,0.3-1.456
	c6.086-8.079,2.351-16.637,0.979-24.919c-4.651-28.091-9.586-56.144-12.275-84.506c-1.893-19.951-2.692-39.96,2.762-59.572
	c3.693-13.284,10.11-24.773,23.48-30.648c21.918-9.632,45.072-0.342,54.691,21.848c5.055,11.659,6.69,24.065,6.995,36.594
	c0.695,28.615-3.823,56.768-8.242,84.903c-2.274,14.477-4.845,28.905-7.259,43.36c-0.56,3.344-0.352,6.267,1.941,9.341
	c3.13,4.2,1.771,9.68,2.4,14.575c1.822,14.198,3.118,28.465,4.896,42.67c0.817,6.527-0.352,11.965-6.271,15.575
	c-1.974,1.203-2.534,2.861-2.582,5.01c-0.117,5.21-1.462,9.887-6.093,13.021c-1.19,0.805-1.709,2.037-1.679,3.451
	c0.342,15.972-1.39,32.02,1.29,47.898c1.354,8.029,4.116,15.492,11.766,19.995c2.613,1.539,2.969,4.219,2.954,7.004
	c-0.036,6.999-0.017,13.999-0.017,20.999c0,78.83,0.002,157.66,0.002,236.49c0,9.29-1.458,10.783-10.67,10.792
	c-18.166,0.019-36.332,0.026-54.498,0.007c-8.514-0.01-10.159-1.676-10.162-10.311
	C1315.309,820.582,1315.316,777.917,1315.323,735.251z M1339.942,706.986c-0.01,0-0.019,0-0.028,0
	c0,30.808,0.102,61.617-0.105,92.424c-0.033,4.772,1.576,6.17,6.039,5.833c3.975-0.3,7.989-0.06,11.986-0.062
	c8.283-0.006,8.288-0.007,8.289-8.535c0.001-47.794,0-95.589,0-143.383c0-12.989-0.105-25.98,0.066-38.968
	c0.053-4.004-1.125-5.815-5.393-5.576c-4.98,0.278-10.01,0.345-14.979-0.021c-4.598-0.338-6,1.217-5.973,5.863
	C1340.031,645.37,1339.942,676.178,1339.942,706.986z M1380.998,361.394c-6.99,4.972-10.847,3.816-13.646-3.436
	c-0.896-2.323-1.587-4.738-2.213-7.153c-2.81-10.847-3.573-22.001-4.901-33.071c-1.813-15.108-4.365-30.015-11.994-43.529
	c-3.005-5.323-6.781-9.897-12.225-12.871c-4.7-2.567-6.193-2.079-8.705,2.559c-2.732,5.045-4.044,10.552-5.342,16.071
	c-0.607,2.578,0.324,4.34,2.299,6.08c5.255,4.628,10.1,9.68,14.49,15.154c13.756,17.149,21.36,36.137,19.213,58.665
	c-1.365,14.311-4.447,28.271-6.768,42.389c-1.807,10.987-4.533,22.135-0.66,33.099c4.182,11.84,3.588,23.579,0.76,35.415
	c-2.017,8.44-4.863,16.64-8.639,24.463c-1.49,3.088-0.95,4.192,2.535,4.032c3.658-0.168,7.344-0.24,10.992,0.016
	c3.561,0.249,5.057-1.143,5.552-4.647c1.585-11.203,3.594-22.349,3.849-33.706c0.044-1.924-0.129-4.727,2.441-4.774
	c3.125-0.059,2.517,2.957,2.566,4.986c0.239,9.861-1.021,19.605-2.572,29.313c-1.44,9.011-0.535,9.915,8.643,8.769
	c2.527-0.315,3.459-1.359,3.199-3.914c-1.314-12.912-2.418-25.847-3.842-38.746c-0.544-4.933-0.703-10.331-2.891-14.557
	c-3.086-5.962-3.278-11.707-2.328-17.885c0.48-3.126,0.998-6.246,1.517-9.366c0.514-3.094,1.05-6.183,1.802-10.604
	c-7.431,12.31-10.562,24.449-11.603,37.226c-0.132,1.611,0.208,3.732-2.13,3.846c-2.445,0.118-2.801-1.899-2.904-3.829
	c-0.053-0.997-0.074-2.002-0.021-2.998c0.82-15.78,6.657-29.759,15.359-42.707c1.666-2.479,3.65-4.805,4.128-7.899
	C1378.275,379.244,1379.574,370.705,1380.998,361.394z M1320.883,291.887c0.028,12.667-4.3,25.721,4.61,37.37
	c2.743,3.588,3.991,8.038,5.18,12.392c3.43,12.555,3.737,25.332,2.464,38.18c-1.014,10.216-3.203,20.354-0.387,30.668
	c1.266,4.639,1.885,9.473,2.55,14.252c0.713,5.124,1.381,10.36-1.578,15.079c-3.056,4.875-2.717,10.218-3.026,16.071
	c1.882-1.768,1.576-5.515,4.723-4.08c2.551,1.163,1.498,3.708,0.849,5.771c-0.5,1.587-0.933,3.237-1.718,4.685
	c-5.428,10.011-7.71,20.744-8.275,32.059c-0.2,3.99,0.936,5.013,4.566,4.938c2.693-0.055,4.298-1.073,5.444-3.474
	c4.321-9.047,7.847-18.407,10.277-28.104c2.286-9.119,3.541-18.522-0.202-27.535c-3.537-8.52-3.838-17.231-2.502-26.018
	c2.402-15.796,5.42-31.498,7.891-47.284C1356.592,335.909,1344.473,311.667,1320.883,291.887z M1352.33,862.115
	c7.161,0,14.323,0.035,21.484-0.013c5.176-0.034,6.259-1.289,4.914-6.392c-3.647-13.843-7.514-27.627-11.189-41.461
	c-0.674-2.536-2.031-3.556-4.594-3.526c-6.661,0.077-13.324,0.063-19.985,0.015c-2.345-0.018-3.731,0.97-4.343,3.245
	c-3.846,14.307-7.763,28.595-11.559,42.913c-0.922,3.477,0.33,5.347,4.287,5.256C1338.337,861.992,1345.334,862.107,1352.33,862.115
	z M1367.41,252.061c4.249,7.59,7.733,15.337,9.998,23.559c3.385,12.289,5.159,24.775,3.509,37.553
	c-0.236,1.826-0.417,4.086-2.861,3.956c-2.704-0.144-2.661-2.521-2.656-4.556c0.01-4.332,0.149-8.666,0.071-12.996
	c-0.3-16.582-5.117-31.804-14.047-45.734c-1.682-2.625-3.171-5.766-6.918-5.862c-5.563-0.143-10.965,0.73-15.888,3.541
	c-2.593,1.48-3.652,2.977-0.149,4.826c7.538,3.978,12.405,10.452,16.15,17.877c5.542,10.992,8.29,22.808,10.133,34.878
	c2.134,13.979,2.426,28.231,6.138,41.968c0.706,2.611,0.805,6.778,3.769,6.911c2.804,0.125,3.408-3.952,4.618-6.446
	c5.856-12.067,6.014-25.183,6.651-38.11c0.809-16.376,0.195-32.704-6.532-48.087C1376.906,259.646,1373.342,254.724,1367.41,252.061
	z M1326.784,833.802c2.563-10.405,7.646-20.371,7.631-31.618c-0.078-62.1-0.042-124.199-0.05-186.3c0-1.496,0.021-3-0.105-4.489
	c-0.217-2.546-2.119-2.58-4.035-2.594c-1.906-0.015-3.282,0.574-3.375,2.743c-0.049,1.164-0.063,2.33-0.063,3.495
	C1326.784,687.96,1326.784,760.881,1326.784,833.802z M1379.176,833.25c0-1.084,0-2.168,0-3.252
	c0.004-71.477,0.009-142.953,0.01-214.43c0-1.166-0.045-2.332-0.059-3.498c-0.027-2.31-1.295-3.156-3.491-3.274
	c-5.046-0.27-3.999,3.426-4.001,6.208c-0.044,60.813,0.187,121.628-0.227,182.438
	C1371.321,810.143,1376.049,821.383,1379.176,833.25z M1363.115,552.828c0-5.819-0.243-11.653,0.075-17.456
	c0.259-4.72-1.716-6.287-6.149-5.956c-2.977,0.222-5.991,0.188-8.974,0.009c-3.786-0.227-5.535,1.141-5.271,5.151
	c0.25,3.808,0.09,7.646,0.039,11.471c-0.216,16.385,1.685,33.033-6.059,48.488c-1.031,2.058,0.248,2.696,2.076,2.696
	c9.479-0.001,18.956-0.016,28.435-0.026c2.067-0.002,2.762-0.963,1.849-2.846C1362.734,581.149,1362.871,566.999,1363.115,552.828z
	 M1353.074,510.782c-4.49,0-8.98,0.021-13.471-0.009c-2.223-0.016-4.027,0.401-4.029,3.171c-0.002,2.595,1.539,3.479,3.859,3.48
	c8.98,0.005,17.961,0.004,26.941,0c2.235-0.001,3.944-0.614,4.01-3.303c0.077-3.133-1.988-3.371-4.338-3.357
	C1361.723,510.791,1357.398,510.772,1353.074,510.782z M1322.225,335.486c0.909,13.152,2.627,26.215,5.308,39.148
	C1328.826,361.201,1327.673,348.08,1322.225,335.486z"/>
<path fill-rule="evenodd" clip-rule="evenodd" d="M243.145,237.225c-14.31-12.193-28.636-24.365-42.906-36.604
	c-1.738-1.49-3.131-2.116-5.496-0.997c-4.027,1.907-7.581,0.345-10.809-2.415c-17.945-15.339-35.95-30.611-53.883-45.966
	c-3.703-3.171-7.78-5.636-12.306-7.358c-10.104-3.845-19.857-1.525-27.227,6.4c-3.712,3.992-3.984,4.111-9.012,1.964
	c-5.006-2.138-10.513-3.379-14.864-6.726c-10.943-8.416-14.315-19.922-12.582-33.212c1.442-11.06,5.892-21.006,11.892-30.259
	c10.36-15.975,24.559-27.112,42.82-32.709c11.523-3.532,22.25-1.484,31.932,5.771c1.236,0.926,2.355,1.967,3.169,3.284
	c2.816,4.552,5.588,9.132,8.422,13.673c1.322,2.12,1.317,4.09-0.334,6.018c-12.145,14.182-6.783,29.189,4.985,39.538
	c17.726,15.589,35.828,30.753,53.878,45.969c4.108,3.462,6.794,7.093,4.762,12.703c-0.657,1.812,0.878,2.533,1.907,3.412
	c10.632,9.094,21.285,18.163,31.933,27.236c8.403,7.16,16.799,14.328,25.216,21.471c1.54,1.306,2.907,2.649,2.907,4.871
	c0.004,13.451,6.548,24.219,14.202,34.525c1.678,2.259,4.124,4.42,1.503,7.433c-1.662,1.91-3.975,1.269-7.672-1.879
	c-14.146-12.048-28.287-24.101-42.43-36.151C243.149,237.22,243.147,237.223,243.145,237.225z M118.634,79.372
	c-6.864,0.45-11.727,3.258-16.343,6.583c-10.668,7.684-18.071,18.237-25.304,28.938c-0.957,1.416-1.573,4.261-3.824,2.947
	c-2.296-1.34-0.132-3.368,0.747-4.735c5.917-9.205,12.276-18.087,20.487-25.442c6.674-5.978,13.829-11.314,23.165-11.854
	c3.417-0.198,5.834-1.109,7.683-3.88c0.662-0.994,1.587-1.809,2.304-2.771c0.553-0.743,1.792-1.381,1.232-2.438
	c-0.539-1.014-1.789-0.544-2.715-0.443c-11.464,1.247-21.851,5.126-30.708,12.691c-0.581,0.495-1.124,1.045-1.75,1.474
	c-0.773,0.528-1.63,0.708-2.38-0.063c-0.774-0.796-0.519-1.666,0.115-2.343c1.114-1.191,2.235-2.412,3.525-3.396
	c10.521-8.034,22.497-11.863,35.661-12.251c1.342-0.04,3.208,0.306,3.512-1.563c0.252-1.547-1.406-2.035-2.528-2.619
	c-7.472-3.887-15.246-3.741-22.904-0.988c-15.52,5.58-27.686,15.513-36.615,29.373c-3.026,4.698-5.526,9.665-7.201,15.016
	c0.407-0.266,0.623-0.629,0.835-0.992c6.565-11.25,14.6-21.223,25.263-28.877c1.069-0.767,2.437-2.151,3.711-0.574
	c1.288,1.595-0.227,2.535-1.383,3.372c-13.862,10.04-22.981,23.678-29.983,39.027c-3.858,8.457-1.004,15.468,3.889,22.241
	c0.886,1.228,2.056,1.76,3.255,0.382c2.131-2.452,4.387-4.708,5.305-8.105c2.73-10.094,8.274-18.714,14.809-26.74
	c0.87-1.069,1.982-2.661,3.464-1.475c1.733,1.387,0.05,2.702-0.798,3.879c-1.853,2.567-3.873,5.023-5.585,7.679
	c-2.186,3.39-4.486,6.755-5.958,11.398C94.086,108.182,106.039,94.155,118.634,79.372z M137.493,96.205
	c-0.292-0.069-0.583-0.139-0.875-0.208c-5.014,5.884-10.026,11.769-15.042,17.651c-1.144,1.341-0.668,2.518,0.154,3.855
	c4.115,6.695,10.233,11.282,16.452,15.754c2.123,1.527,4.43,2.795,6.634,4.211c0.765,0.491,1.402,1.146,1.063,2.161
	c-0.267,0.797-0.914,1.322-1.764,1.125c-0.83-0.191-1.654-0.543-2.392-0.976c-8.633-5.069-16.606-10.912-22.459-19.234
	c-0.592-0.842-1.049-2.019-2.533-1.018c-2.813,1.898-3.162,4.046-0.854,6.538c1.334,1.439,2.719,2.837,4.146,4.184
	c11.747,11.079,25.596,18.89,39.977,25.941c7.634,3.744,15.345,7.487,21.188,13.993c0.997,1.109,1.881,1.14,3.03,0.051
	c2.965-2.812,3.016-3.813,0.038-6.566c-6.326-5.85-13.309-10.619-21.597-13.3c-1.259-0.407-3.233-0.687-2.621-2.643
	c0.678-2.169,2.537-1.153,3.882-0.707c8.855,2.935,16.597,7.753,23.316,14.191c1.354,1.297,2.281,2.677,4.179,0.622
	c1.758-1.902,2.006-3.226-0.204-5.047c-6.916-5.7-13.71-11.548-20.49-17.41c-1.858-1.608-3.856-2.789-6.204-3.515
	c-7.04-2.178-13.638-5.345-19.749-9.44c-5.979-4.006-11.107-8.859-14.008-15.652c-0.481-1.128-0.913-2.425,0.627-3.079
	c1.287-0.546,2.016,0.366,2.554,1.41c0.301,0.583,0.587,1.173,0.903,1.748c5.293,9.645,14.3,14.514,23.926,18.654
	C147.923,120.805,138.762,111.074,137.493,96.205z M273.887,252.918c-1.809-4.835-3.332-9.623-3.482-14.663
	c-0.082-2.745-1.17-4.612-3.262-6.379c-17.113-14.456-34.114-29.044-51.2-43.531c-6.407-5.433-4.88-5.745-10.563,0.841
	c-2.958,3.429-2.939,3.468,0.503,6.403c21.872,18.644,43.747,37.284,65.635,55.907C272.138,252.023,272.614,252.834,273.887,252.918
	z M134.974,86.381c-2.95,0.996-5.124,2.783-7.107,4.831c-0.813,0.841-1.819,1.427-2.857,0.454c-1.056-0.988-0.457-2.024,0.298-2.881
	c0.792-0.898,1.636-1.764,2.541-2.547c3.505-3.034,7.614-5.054,11.738-7.096c6.087-3.015,5.731-4.714,2.792-8.873
	c-2.456-3.474-2.316-3.601-4.952-0.508c-12.692,14.888-25.375,29.784-38.053,44.684c-0.568,0.668-1.063,1.398-1.591,2.101
	c5.945-3.694,11.638-7.54,15.583-13.365c0.621-0.917,1.405-1.494,2.461-0.876c1.111,0.649,0.895,1.643,0.287,2.543
	c-0.853,1.261-1.689,2.543-2.661,3.709c-5.928,7.113-13.648,11.829-21.68,16.123c-0.857,0.457-1.802,0.917-2.422,1.625
	c-3.96,4.521-7.848,9.106-11.741,13.687c-0.475,0.558-1.108,1.13-0.587,2.012c1.289,2.174,7.76,3.021,9.416,1.105
	c8.435-9.756,16.823-19.551,25.204-29.351C119.434,104.645,127.198,95.507,134.974,86.381z M200.46,182.833
	c0.003,0.003,0.007,0.006,0.01,0.009c0.991-1.164,1.996-2.316,2.971-3.492c6.688-8.067,6.921-5.898-1.029-13.032
	c-2.346-2.106-3.743-1.678-5.532,0.569c-3.057,3.842-6.398,7.456-9.508,11.257c-6.947,8.493-7.357,5.488,1.397,13.272
	c1.783,1.585,3.204,1.456,4.694-0.349C195.755,188.29,198.124,185.574,200.46,182.833z M141.173,150.847
	c7.058,6.014,14.317,11.811,21.1,18.12c4.26,3.962,9.298,4.373,14.495,4.867c0.491,0.047,1.258-0.073,1.47-0.396
	c0.441-0.675-0.235-1.194-0.7-1.613c-1.296-1.166-2.586-2.35-3.966-3.414C163.723,160.82,151.783,157.025,141.173,150.847z
	 M103.759,134.74c6.947-0.656,12.72,0.476,19.141,2.942c-3.877-3.686-7.449-6.244-10.253-9.621c-0.9-1.084-1.962-1.42-3.028-0.19
	C107.865,129.896,106.14,131.945,103.759,134.74z"/>
<path fill-rule="evenodd" clip-rule="evenodd" d="M1545.738,314.719c-0.438,20.545-4.847,48.334-9.43,76.103
	c-2.061,12.484-4.137,24.967-6.223,37.447c-0.428,2.562-0.319,4.898,1.602,6.989c2.846,3.097,2.317,7.236,2.758,10.939
	c1.868,15.703,3.366,31.45,5.143,47.165c0.754,6.673-0.58,12.31-6.774,15.888c-2.142,1.237-2.163,3.142-2.161,5.174
	c0.004,5.332-0.009,10.665-0.02,15.997c-0.013,6.583-2.429,11.75-8.882,14.223c-2.696,1.033-3.336,2.877-3.325,5.438
	c0.142,36.658-0.546,73.345,0.699,109.965c0.664,19.546,4.677,38.976,7.134,58.464c2.226,17.654,5.55,35.269,1.465,53.119
	c-1.646,7.196-3.796,14.184-7.652,20.503c-10.414,17.066-27.925,16.872-37.94-0.446c-5.795-10.02-8.163-21.065-8.892-32.485
	c-1.091-17.103,2.213-33.847,4.436-50.666c3.468-26.243,7.273-52.405,6.715-79.037c-0.546-25.983-0.174-51.988-0.051-77.983
	c0.018-3.761-0.76-6.084-4.704-7.516c-4.786-1.738-7.094-5.914-7.375-10.958c-0.213-3.821-0.15-7.664-0.069-11.495
	c0.124-5.775,0.728-11.281-5.72-15.012c-3.446-1.993-4.062-6.622-3.609-10.862c1.885-17.71,3.7-35.427,5.572-53.138
	c0.157-1.485,0.063-3.333,0.895-4.355c4.791-5.893,2.792-12.316,1.719-18.624c-4.606-27.083-9.455-54.134-12.358-81.465
	c-2.326-21.892-3.98-43.826,1.44-65.575c1.746-7.009,4.254-13.745,8.511-19.6c17.786-24.462,54.616-21.509,68.435,5.408
	C1543.209,270.272,1545.835,284.992,1545.738,314.719z M1521.31,410.413c-0.241-0.078-0.483-0.157-0.725-0.235
	c-0.359,0.697-0.742,1.384-1.074,2.095c-4.278,9.17-6.78,18.757-6.976,28.926c-0.037,1.973-0.289,4.401-3.11,4.157
	c-2.514-0.217-2.187-2.506-2.276-4.302c-0.033-0.664,0.002-1.333,0.025-1.999c0.5-13.658,4.364-26.518,11.966-37.643
	c7.954-11.641,6.772-24.921,9.926-37.787c-6.775,1.726-9.249,0.629-11.709-5.143c-1.233-2.896-2.213-5.948-2.896-9.021
	c-2.172-9.766-3.223-19.699-4.285-29.64c-1.597-14.949-4.038-29.736-10.911-43.363c-3.36-6.663-7.769-12.428-14.716-15.793
	c-3.977-1.926-6.96-1.294-8.971,2.991c-2.137,4.555-3.625,9.282-4.845,14.148c-0.832,3.32-0.15,5.737,2.644,7.812
	c5.524,4.103,10.011,9.295,14.324,14.588c13.147,16.13,20.987,34.155,20.136,55.471c-0.596,14.901-3.792,29.36-6.495,43.919
	c-2.66,14.328-4.804,28.557,0.964,42.791c2.073,5.118,1.646,10.8,0.946,16.319c-1.609,12.685-5.5,24.69-10.858,36.226
	c-1.584,3.409-0.854,4.48,2.779,4.329c3.826-0.16,7.666-0.12,11.496-0.029c2.85,0.068,4.292-1.168,4.658-3.999
	c0.555-4.29,1.432-8.543,1.884-12.842c0.801-7.612,1.379-15.248,2.063-22.873c0.17-1.894,0.475-3.947,2.94-3.811
	c2.106,0.116,2.403,2.001,2.483,3.735c0.054,1.164,0.046,2.333,0.001,3.498c-0.398,10.504-1.976,20.874-3.552,31.245
	c-0.243,1.605-1.082,3.793,0.794,4.504c2.797,1.06,5.958,1.051,8.798-0.051c1.916-0.743,1.45-2.803,1.281-4.431
	c-1.307-12.583-2.431-25.191-4.095-37.729c-0.648-4.882,0.262-10.135-2.57-14.62c-3.124-4.949-3.554-10.271-2.584-15.874
	C1519.666,420.802,1520.467,415.604,1521.31,410.413z M1478.742,461.588c0.825-2.167,1.629-4.343,2.48-6.499
	c0.722-1.83,1.264-4.342,3.919-3.497c3.025,0.962,1.857,3.558,1.14,5.48c-1.805,4.829-3.172,10.014-5.952,14.243
	c-4.483,6.821-4.945,14.331-5.578,21.926c-0.196,2.354-0.947,5.467,2.81,5.815c3.196,0.296,6.635,1.091,8.459-3.174
	c4.065-9.502,8.06-19.005,10.202-29.174c1.798-8.534,3.401-17.141,0-25.575c-3.959-9.818-3.643-19.906-2.353-30.019
	c2.063-16.176,6.001-32.035,8.056-48.242c3.779-29.813-9.52-52.102-30.205-71.404c-1.34-1.25-3.059-1.776-2.899,0.802
	c0.739,12.05-3.199,24.176,5.329,35.879c9.889,13.573,9.727,30.294,9.107,46.647c-0.499,13.181-5.544,26.184-1.523,39.56
	c0.857,2.852,1.266,5.862,1.641,8.83c0.603,4.77,2.129,9.902-0.33,14.249C1478.727,445.065,1479.395,453.447,1478.742,461.588z
	 M1506.469,603.115c0-19.663-0.08-36.149,0.057-52.634c0.034-4.18-2.001-4.97-5.581-4.939c-3.355,0.027-5.273,0.677-5.24,4.67
	c0.127,15.314-0.358,30.641,0.041,45.944c1.057,40.529-0.771,80.828-7.514,120.882c-2.316,13.755-4.494,27.631-3.495,41.7
	c0.752,10.581,2.849,20.82,9.185,29.657c4.568,6.369,9.771,6.388,14.595,0.211c4.096-5.245,5.984-11.447,7.567-17.784
	c4.368-17.486,0.768-34.758-1.43-52.049c-2.704-21.283-6.146-42.469-7.58-63.912
	C1505.848,636.553,1506.969,618.241,1506.469,603.115z M1517.644,253.063c6.597,11.53,10.648,23.777,12.494,36.788
	c1.081,7.623,0.861,15.279,0.545,22.933c-0.084,2.018-0.272,4.404-3.018,4.267c-2.444-0.122-2.414-2.356-2.414-4.213
	c0.001-2.498,0.074-4.996,0.118-7.494c0.332-19-4.275-36.592-14.977-52.438c-1.199-1.776-2.236-3.797-4.629-4.282
	c-6.996-1.42-13.575-0.197-19.71,3.345c-1.95,1.126-2.188,2.3,0.259,3.429c10.546,4.863,16.245,13.91,20.479,24.143
	c6.454,15.601,8.177,32.168,9.925,48.738c0.96,9.102,2.053,18.201,5.209,26.88c0.438,1.201,0.835,2.847,2.29,3.028
	c1.578,0.197,2.056-1.493,2.688-2.595c2.599-4.518,4.492-9.339,5.031-14.534c1.889-18.221,3.693-36.462,1.289-54.777
	C1531.555,273.56,1528.623,261.363,1517.644,253.063z M1501.004,534.12c4.319,0,8.641-0.077,12.958,0.024
	c3.494,0.081,5.279-1.303,5.207-4.97c-0.095-4.816-0.073-9.637,0.018-14.452c0.051-2.668-0.929-3.997-3.755-3.978
	c-9.303,0.064-18.606,0.065-27.909,0.002c-2.75-0.019-3.918,1.162-3.883,3.882c0.066,4.982,0.099,9.969-0.01,14.95
	c-0.077,3.505,1.635,4.68,4.916,4.578C1492.694,534.029,1496.851,534.126,1501.004,534.12z M1476.86,382.144
	c0.718-16.95,2.492-34.05-6.731-49.602C1471.578,349.188,1473.594,365.754,1476.86,382.144z"/>
<path fill-rule="evenodd" clip-rule="evenodd" d="M1211.977,43.142c3.938-11.966,7.466-22.523,10.863-33.122
	c0.934-2.913,0.201-5.324-3.131-6.222c-1.163-0.313-2.483-0.547-2.295-2.082c0.231-1.889,1.895-1.548,3.153-1.569
	c4.831-0.083,9.662-0.11,14.493-0.125c1.127-0.003,2.534-0.279,2.906,1.25c0.44,1.813-0.846,2.301-2.297,2.483
	c-2.79,0.349-3.117,2.074-2.42,4.337c3.372,10.949,6.758,21.894,10.106,32.732c1.851,0.09,1.798-1.175,2.065-2.004
	c3.073-9.509,6.146-19.019,9.108-28.562c0.843-2.713,1.863-5.707-2.443-6.689c-1.098-0.25-1.694-1.099-1.378-2.256
	c0.254-0.929,1.104-1.193,1.973-1.196c4.164-0.018,8.329-0.026,12.494,0.008c1.049,0.008,2.012,0.323,2.079,1.627
	c0.051,0.967-0.531,1.678-1.386,1.816c-3.48,0.565-4.193,3.378-5.182,6.054c-5.19,14.064-10.396,28.123-15.644,42.166
	c-0.614,1.643-0.806,4.085-3.04,4.103c-2.285,0.018-2.41-2.435-2.975-4.092c-4.076-11.957-8.102-23.93-12.306-36.383
	c-2.03,1.658-2.299,3.695-2.931,5.437c-3.754,10.334-7.391,20.709-11.139,31.045c-0.591,1.63-0.829,3.982-3.209,3.887
	c-2.095-0.083-2.15-2.296-2.674-3.781c-4.934-13.979-9.805-27.981-14.71-41.97c-1.033-2.946-1.579-6.323-5.8-6.505
	c-0.846-0.037-1.505-0.73-1.458-1.722c0.062-1.277,0.967-1.662,2.045-1.675c4.997-0.058,9.994-0.087,14.992-0.106
	c0.863-0.003,1.708,0.211,1.993,1.158c0.333,1.104-0.028,2.064-1.169,2.372c-1.963,0.531-2.834,1.508-2.156,3.621
	C1204.206,18.694,1207.863,30.226,1211.977,43.142z"/>
<path fill-rule="evenodd" clip-rule="evenodd" d="M1425.66,0.024c8.301,0.076,16.629-0.833,24.865,1.022
	c13.42,3.023,21.594,13.559,20.958,27.048c-0.663,14.084-10.024,24.504-23.225,26.662c-10.491,1.715-20.961-0.972-31.409,0.479
	c-1.35,0.188-2.775-0.177-2.717-2.081c0.047-1.571,1.223-1.967,2.438-1.855c4.963,0.459,5.753-2.39,5.711-6.497
	c-0.12-11.659-0.054-23.321,0.023-34.981c0.023-3.566-0.538-6.37-5.065-6.164c-1.341,0.061-2.896-0.236-2.718-2.1
	c0.189-1.959,1.915-1.478,3.146-1.512C1420.33-0.027,1422.996,0.024,1425.66,0.024z M1430.723,26.003c0.009,0,0.018,0,0.026,0
	c0,6.159-0.005,12.317,0.003,18.476c0.004,3.372,1.324,5.973,4.836,6.593c7.26,1.284,14.021,0.003,19.466-5.253
	c7.604-7.342,9.5-20.163,4.737-30.128c-4.09-8.556-13.233-13.039-24.287-12.167c-3.342,0.263-4.805,1.753-4.789,5.003
	C1430.743,14.352,1430.723,20.177,1430.723,26.003z"/>
<path fill-rule="evenodd" clip-rule="evenodd" d="M1280.771,135.241c4.086,5.794,8.052,11.507,12.119,17.146
	c1.668,2.311,3.566,4.437,6.682,4.826c1.044,0.131,2.016,0.512,2.02,1.772c0.004,1.64-1.289,1.625-2.458,1.804
	c-9.37,1.432-11.224,0.556-16.001-7.864c-2.304-4.059-4.602-8.116-7.579-11.733c-1.495-1.815-3.143-3.502-5.502-4.14
	c-2.515-0.679-4.356-0.152-4.355,2.946c0.001,4.496,0.036,8.993,0.052,13.489c0.01,2.803,1.643,3.727,4.188,3.772
	c1.381,0.024,2.865,0.348,2.695,2.178c-0.187,2.001-1.863,1.453-3.114,1.455c-4.995,0.007-9.991-0.007-14.987-0.032
	c-1.131-0.006-2.568,0.298-2.926-1.198c-0.433-1.81,0.964-2.301,2.368-2.426c2.923-0.261,3.383-2.264,3.388-4.601
	c0.023-12.658,0.012-25.317,0.059-37.975c0.012-2.872-0.84-4.859-4.08-5.136c-1.086-0.093-1.845-0.852-1.76-2.034
	c0.091-1.281,1.14-1.674,2.152-1.56c8.792,0.994,17.646-1.305,26.402,0.459c6.137,1.236,10.868,4.347,12.418,10.81
	c1.471,6.136-0.6,11.826-5.425,15C1285.23,133.447,1283.004,134.193,1280.771,135.241z M1265.658,121.811
	c0,1.496-0.003,2.993,0,4.489c0.014,7.282,0.721,7.837,7.764,6.105c0.646-0.159,1.303-0.285,1.934-0.488
	c5.585-1.789,9.333-7.05,8.852-12.402c-0.488-5.428-4.439-9.006-10.842-9.821c-6.565-0.835-7.656,0.101-7.703,6.63
	C1265.649,118.153,1265.66,119.981,1265.658,121.811z"/>
<path fill-rule="evenodd" clip-rule="evenodd" d="M1416.838,118.007c-0.127,11.947-0.453,23.858,0.937,35.749
	c0.248,2.124,1.46,3.237,3.547,3.557c1.147,0.175,1.774,0.957,1.622,2.116c-0.168,1.275-1.203,1.438-2.252,1.44
	c-3.832,0.011-7.664,0.021-11.496,0.01c-1.172-0.003-2.484,0.058-2.592-1.592c-0.079-1.22,0.801-1.854,1.856-1.94
	c3.706-0.303,3.862-2.95,4.049-5.741c0.731-10.981,0.659-21.976,0.632-32.971c-0.012-4.46-0.641-8.479-6.318-8.993
	c-1.291-0.117-2.313-0.826-2.083-2.263c0.242-1.521,1.558-1.45,2.755-1.431c3.164,0.048,6.332,0.175,9.491,0.075
	c3.196-0.102,4.747,2.056,6.302,4.238c8.124,11.409,17.176,22.087,25.951,32.982c0.293,0.363,0.773,0.575,1.904,1.389
	c0.158-10.776,0.803-20.957-0.771-31.121c-0.347-2.238-1.837-3.451-4.073-3.782c-1.354-0.2-2.914-0.474-2.551-2.304
	c0.346-1.742,2-1.397,3.294-1.416c3.663-0.053,7.326-0.084,10.988-0.121c1.188-0.012,2.468-0.055,2.731,1.484
	c0.194,1.136-0.434,1.967-1.56,2.185c-3.634,0.705-3.505,3.532-3.521,6.216c-0.071,12.831-0.06,25.663-0.188,38.494
	c-0.021,2.23,1.122,5.541-1.231,6.42c-2.853,1.065-3.804-2.571-5.253-4.343c-9.81-11.99-19.459-24.111-29.182-36.172
	C1419.146,119.327,1418.789,118.034,1416.838,118.007z"/>
<path fill-rule="evenodd" clip-rule="evenodd" d="M1302.558,55.985c-16.616-0.041-28.459-11.886-28.299-28.274
	c0.126-12.836,10.862-29.368,28.462-28.695c15.576,0.595,27.966,13.075,27.895,29.199
	C1330.547,43.705,1318.102,56.023,1302.558,55.985z M1283.463,26.554c-0.225,8.63,2.543,16.015,9.408,21.51
	c8.43,6.748,19.11,4.991,25.053-3.996c7.462-11.285,4.5-29.263-6.177-37.502c-7.696-5.939-16.734-4.78-22.905,2.811
	C1284.746,14.415,1283.176,20.173,1283.463,26.554z"/>
<path fill-rule="evenodd" clip-rule="evenodd" d="M1373.158-0.87c15.746-0.051,28.261,12.57,28.382,28.625
	c0.117,15.474-12.502,28.186-28.117,28.323c-16.294,0.144-28.097-11.559-28.183-27.94C1345.158,12.151,1357.642-0.82,1373.158-0.87z
	 M1392.561,29.555c0.021-10.252-3.211-17.672-9.593-22.743c-7.837-6.227-17.296-5.229-23.362,2.466
	c-8.316,10.549-7.115,28.23,2.548,37.516c9.602,9.227,23.579,6.137,28.393-6.25C1392.014,36.766,1392.704,32.878,1392.561,29.555z"
	/>
<path fill-rule="evenodd" clip-rule="evenodd" d="M1521.149,136.562c2.497,0,4.995-0.051,7.49,0.022
	c1.218,0.036,2.387,0.432,2.411,1.956c0.019,1.182-0.812,1.865-1.876,1.956c-3.983,0.341-3.487,3.265-3.521,5.912
	c-0.152,11.591-0.547,12.069-12.078,14.596c-5.438,1.191-10.96,1.277-16.391,0.394c-14.333-2.331-23.44-14.505-22.781-30.058
	c0.586-13.819,11.597-25.09,25.517-26.11c6.386-0.468,12.658-0.194,18.513,2.836c0.584,0.302,1.363,0.843,1.826,0.67
	c6.154-2.296,4.971,2.346,5.198,5.504c0.155,2.154,0.098,4.329,0.024,6.491c-0.044,1.287,0.1,2.928-1.658,3.188
	c-1.732,0.256-2.099-1.354-2.585-2.545c-3.261-7.994-8.735-12.83-17.8-12.66c-9.637,0.181-17.96,7.761-19.505,18.152
	c-0.863,5.808-0.51,11.614,1.38,17.271c4.244,12.708,16.683,16.53,28.498,12.116c5.428-2.028,3.066-7.031,3.522-10.888
	c0.352-2.971-0.78-4.809-4.106-4.808c-1.255,0.001-2.341-0.591-2.162-2.128c0.173-1.488,1.429-1.776,2.594-1.819
	c2.493-0.091,4.993-0.028,7.49-0.028C1521.149,136.574,1521.149,136.568,1521.149,136.562z"/>
<path fill-rule="evenodd" clip-rule="evenodd" d="M1229.229,160.848c-2.833-0.004-5.665,0.019-8.497-0.015
	c-1.076-0.013-1.979-0.403-2.08-1.659c-0.08-0.99,0.552-1.631,1.402-1.783c3.95-0.706,2.891-3.209,2.178-5.694
	c-3.531-12.291-6.92-14.327-19.557-11.928c-1.982,0.376-2.796,1.542-3.375,3.194c-0.882,2.515-1.742,5.039-2.7,7.525
	c-1.333,3.465-2.994,6.971,3.232,6.954c1.099-0.003,1.792,0.879,1.65,2.064c-0.155,1.294-1.184,1.46-2.225,1.455
	c-4.664-0.023-9.328-0.06-13.991-0.114c-1.038-0.012-2.074-0.184-2.13-1.527c-0.05-1.203,0.726-1.92,1.819-1.966
	c4.385-0.184,5.693-3.38,6.958-6.773c4.479-12.016,9.229-23.937,13.408-36.055c1.289-3.737,1.725-7.196,5.971-9.265
	c3.142-1.53,4.101-0.89,5.012,1.888c2.957,9.021,5.927,18.037,8.925,27.043c1.894,5.688,3.872,11.347,5.761,17.036
	c1.077,3.241,2.842,5.638,6.549,5.973c1.407,0.127,2.858,0.498,2.54,2.305c-0.259,1.469-1.683,1.345-2.854,1.346
	C1234.561,160.854,1231.895,160.852,1229.229,160.848z M1210.6,115.586c-0.474,0.065-0.948,0.129-1.421,0.194
	c-1.27,3.396-2.624,6.764-3.792,10.194c-3.983,11.697-5.597,10.034,7.685,10.172c0.498,0.005,0.997-0.023,1.494-0.046
	c1.792-0.08,2.324-1.021,1.795-2.661C1214.442,127.487,1212.52,121.537,1210.6,115.586z"/>
<path fill-rule="evenodd" clip-rule="evenodd" d="M1151.729,161.881c-11.041-0.178-19.861-4.234-24.337-14.916
	c-5.11-12.193-4.492-23.985,4.9-33.952c8.18-8.681,18.542-9.544,29.569-6.4c2.47,0.704,4.676,3.421,7.734,0.69
	c1.173-1.048,1.854,0.778,2.022,1.911c0.587,3.952,1.116,7.912,1.62,11.875c0.153,1.201,0.055,2.468-1.433,2.75
	c-1.177,0.223-1.807-0.721-2.207-1.654c-1.193-2.782-2.746-5.337-4.784-7.568c-9.502-10.405-25.673-6.906-30.063,6.473
	c-2.56,7.803-2.059,15.448,1.273,22.88c6.175,13.774,23.007,16.904,33.998,6.466c1.275-1.211,2.596-4.401,4.465-2.575
	c1.936,1.892-0.994,3.796-2.283,5.26C1166.911,159.131,1160.211,161.874,1151.729,161.881z"/>
<path fill-rule="evenodd" clip-rule="evenodd" d="M1332.384,147.892c5.815-11.013,9.714-22.15,13.376-33.373
	c0.735-2.255,0.905-4.321-2.186-4.998c-1.124-0.247-1.641-1.16-1.404-2.279c0.253-1.193,1.254-1.438,2.314-1.424
	c4.658,0.063,9.316,0.127,13.975,0.223c1.048,0.021,2.053,0.279,2.055,1.623c0.002,0.929-0.528,1.658-1.438,1.78
	c-6.516,0.871-8.174,6.245-10.184,11.132c-4.88,11.86-9.543,23.809-14.433,35.665c-0.827,2.004-0.96,5.39-3.694,5.251
	c-2.292-0.116-2.348-3.325-3.036-5.282c-4.639-13.194-9.137-26.438-13.765-39.637c-1.019-2.906-1.557-6.317-5.531-6.989
	c-1.243-0.21-1.481-1.252-1.314-2.318c0.203-1.306,1.313-1.379,2.303-1.38c5.654-0.001,11.309,0.026,16.963,0.086
	c1.031,0.011,2.057,0.295,2.1,1.609c0.039,1.206-0.768,1.926-1.846,1.938c-5.941,0.066-5.304,3.649-4.076,7.524
	C1325.819,127.331,1329.107,137.609,1332.384,147.892z"/>
<path fill-rule="evenodd" clip-rule="evenodd" d="M1380.214,160.998c-2.993,0-5.985,0.005-8.978-0.002
	c-1.188-0.003-2.487,0.011-2.653-1.563c-0.161-1.524,0.995-2.145,2.216-2.087c5.4,0.257,5.643-3.217,5.612-7.234
	c-0.089-11.478-0.087-22.957,0.001-34.434c0.027-3.646-0.643-6.295-5.138-6.006c-1.436,0.092-3.419,0.117-3.296-2.022
	c0.129-2.228,2.169-1.568,3.545-1.585c5.653-0.069,11.309-0.079,16.963-0.065c1.098,0.003,2.551-0.353,2.881,1.227
	c0.38,1.823-0.981,2.358-2.395,2.405c-3.73,0.122-4.151,2.586-4.147,5.495c0.016,12.144,0.024,24.288-0.013,36.431
	c-0.01,3.198,0.701,5.643,4.58,5.674c1.422,0.012,2.842,0.413,2.593,2.224c-0.21,1.525-1.626,1.394-2.788,1.397
	c-2.994,0.009-5.989,0.003-8.983,0.003C1380.214,160.902,1380.214,160.95,1380.214,160.998z"/>
<path fill-rule="evenodd" clip-rule="evenodd" fill="none" d="M1339.942,706.986c0-30.808,0.089-61.616-0.097-92.424
	c-0.027-4.646,1.375-6.201,5.973-5.863c4.969,0.365,9.998,0.299,14.979,0.021c4.268-0.239,5.445,1.572,5.393,5.576
	c-0.172,12.987-0.066,25.979-0.066,38.968c0,47.794,0.001,95.589,0,143.383c-0.001,8.528-0.006,8.529-8.289,8.535
	c-3.997,0.002-8.012-0.238-11.986,0.062c-4.463,0.337-6.072-1.061-6.039-5.833c0.207-30.807,0.105-61.616,0.105-92.424
	C1339.924,706.986,1339.933,706.986,1339.942,706.986z"/>
<path fill-rule="evenodd" clip-rule="evenodd" fill="none" d="M1380.998,361.394c-1.424,9.311-2.723,17.85-4.038,26.387
	c-0.478,3.095-2.462,5.42-4.128,7.899c-8.702,12.948-14.539,26.927-15.359,42.707c-0.053,0.996-0.031,2.001,0.021,2.998
	c0.104,1.93,0.459,3.947,2.904,3.829c2.338-0.113,1.998-2.234,2.13-3.846c1.041-12.776,4.172-24.916,11.603-37.226
	c-0.752,4.422-1.288,7.511-1.802,10.604c-0.519,3.12-1.036,6.24-1.517,9.366c-0.95,6.178-0.758,11.923,2.328,17.885
	c2.188,4.226,2.347,9.624,2.891,14.557c1.424,12.899,2.527,25.834,3.842,38.746c0.26,2.555-0.672,3.599-3.199,3.914
	c-9.178,1.146-10.083,0.242-8.643-8.769c1.551-9.707,2.812-19.451,2.572-29.313c-0.05-2.029,0.559-5.045-2.566-4.986
	c-2.57,0.048-2.397,2.851-2.441,4.774c-0.255,11.357-2.264,22.503-3.849,33.706c-0.495,3.505-1.991,4.896-5.552,4.647
	c-3.648-0.256-7.334-0.184-10.992-0.016c-3.485,0.16-4.025-0.944-2.535-4.032c3.775-7.823,6.622-16.022,8.639-24.463
	c2.828-11.836,3.422-23.575-0.76-35.415c-3.873-10.964-1.146-22.111,0.66-33.099c2.32-14.117,5.402-28.078,6.768-42.389
	c2.147-22.527-5.457-41.516-19.213-58.665c-4.391-5.475-9.235-10.526-14.49-15.154c-1.975-1.74-2.906-3.502-2.299-6.08
	c1.298-5.519,2.609-11.026,5.342-16.071c2.512-4.638,4.005-5.126,8.705-2.559c5.443,2.974,9.22,7.548,12.225,12.871
	c7.629,13.514,10.182,28.421,11.994,43.529c1.328,11.07,2.092,22.225,4.901,33.071c0.626,2.415,1.316,4.83,2.213,7.153
	C1370.151,365.21,1374.008,366.366,1380.998,361.394z"/>
<path fill-rule="evenodd" clip-rule="evenodd" fill="none" d="M1320.883,291.887c23.59,19.779,35.709,44.021,30.865,74.969
	c-2.471,15.786-5.488,31.488-7.891,47.284c-1.336,8.786-1.035,17.498,2.502,26.018c3.743,9.013,2.488,18.416,0.202,27.535
	c-2.431,9.697-5.956,19.058-10.277,28.104c-1.146,2.4-2.751,3.419-5.444,3.474c-3.631,0.074-4.767-0.948-4.566-4.938
	c0.565-11.314,2.848-22.048,8.275-32.059c0.785-1.447,1.218-3.098,1.718-4.685c0.649-2.063,1.702-4.607-0.849-5.771
	c-3.146-1.435-2.841,2.313-4.723,4.08c0.31-5.854-0.029-11.196,3.026-16.071c2.959-4.719,2.291-9.955,1.578-15.079
	c-0.665-4.779-1.284-9.613-2.55-14.252c-2.816-10.313-0.627-20.452,0.387-30.668c1.273-12.848,0.966-25.625-2.464-38.18
	c-1.188-4.354-2.437-8.804-5.18-12.392C1316.583,317.608,1320.911,304.554,1320.883,291.887z"/>
<path fill-rule="evenodd" clip-rule="evenodd" fill="none" d="M1352.33,862.111c-6.996-0.004-13.993-0.119-20.984,0.041
	c-3.957,0.091-5.209-1.779-4.287-5.256c3.796-14.318,7.713-28.606,11.559-42.913c0.611-2.275,1.998-3.263,4.343-3.245
	c6.661,0.049,13.324,0.063,19.985-0.015c2.563-0.029,3.92,0.99,4.594,3.526c3.676,13.834,7.542,27.618,11.189,41.461
	c1.345,5.103,0.262,6.357-4.914,6.392C1366.653,862.15,1359.491,862.115,1352.33,862.111z"/>
<path fill-rule="evenodd" clip-rule="evenodd" fill="none" d="M1367.41,252.061c5.932,2.663,9.496,7.584,11.985,13.276
	c6.728,15.384,7.341,31.711,6.532,48.087c-0.638,12.928-0.795,26.043-6.651,38.11c-1.21,2.494-1.814,6.571-4.618,6.446
	c-2.964-0.133-3.063-4.3-3.769-6.911c-3.712-13.736-4.004-27.989-6.138-41.968c-1.843-12.07-4.591-23.886-10.133-34.878
	c-3.745-7.426-8.612-13.899-16.15-17.877c-3.503-1.849-2.443-3.346,0.149-4.826c4.923-2.81,10.324-3.684,15.888-3.541
	c3.747,0.096,5.236,3.237,6.918,5.862c8.93,13.931,13.747,29.152,14.047,45.734c0.078,4.33-0.062,8.664-0.071,12.996
	c-0.005,2.035-0.048,4.412,2.656,4.556c2.444,0.13,2.625-2.13,2.861-3.956c1.65-12.778-0.124-25.264-3.509-37.553
	C1375.144,267.398,1371.659,259.651,1367.41,252.061z"/>
<path fill-rule="evenodd" clip-rule="evenodd" fill="none" d="M1326.784,833.802c0-72.921,0-145.842,0.003-218.763
	c0-1.165,0.014-2.331,0.063-3.495c0.093-2.169,1.469-2.758,3.375-2.743c1.916,0.014,3.818,0.048,4.035,2.594
	c0.127,1.489,0.105,2.993,0.105,4.489c0.008,62.101-0.028,124.2,0.05,186.3C1334.43,813.431,1329.348,823.397,1326.784,833.802z"/>
<path fill-rule="evenodd" clip-rule="evenodd" fill="none" d="M1379.176,833.25c-3.127-11.867-7.854-23.107-7.768-35.808
	c0.413-60.811,0.183-121.625,0.227-182.438c0.002-2.782-1.045-6.478,4.001-6.208c2.196,0.118,3.464,0.965,3.491,3.274
	c0.014,1.166,0.059,2.332,0.059,3.498c-0.001,71.477-0.006,142.953-0.01,214.43C1379.176,831.083,1379.176,832.167,1379.176,833.25z
	"/>
<path fill-rule="evenodd" clip-rule="evenodd" fill="none" d="M1363.115,552.828c-0.244,14.171-0.381,28.321,6.021,41.531
	c0.913,1.883,0.219,2.844-1.849,2.846c-9.479,0.011-18.956,0.025-28.435,0.026c-1.828,0-3.107-0.639-2.076-2.696
	c7.743-15.455,5.843-32.104,6.059-48.488c0.051-3.824,0.211-7.663-0.039-11.471c-0.265-4.011,1.484-5.378,5.271-5.151
	c2.982,0.179,5.997,0.213,8.974-0.009c4.434-0.331,6.408,1.236,6.149,5.956C1362.872,541.174,1363.115,547.008,1363.115,552.828z"/>
<path fill-rule="evenodd" clip-rule="evenodd" fill="none" d="M1353.074,510.777c4.324-0.005,8.648,0.014,12.973-0.013
	c2.35-0.014,4.415,0.225,4.338,3.357c-0.065,2.688-1.774,3.302-4.01,3.303c-8.98,0.004-17.961,0.005-26.941,0
	c-2.32-0.001-3.861-0.886-3.859-3.48c0.002-2.77,1.807-3.187,4.029-3.171C1344.094,510.802,1348.584,510.782,1353.074,510.777z"/>
<path fill-rule="evenodd" clip-rule="evenodd" fill="none" d="M1322.225,335.486c5.448,12.594,6.602,25.715,5.308,39.148
	C1324.852,361.701,1323.134,348.638,1322.225,335.486z"/>
<path fill-rule="evenodd" clip-rule="evenodd" fill="none" d="M118.634,79.372c-12.596,14.783-24.548,28.81-37.022,43.451
	c1.472-4.643,3.772-8.008,5.958-11.398c1.712-2.656,3.732-5.112,5.585-7.679c0.849-1.177,2.531-2.492,0.798-3.879
	c-1.482-1.186-2.594,0.406-3.464,1.475c-6.534,8.026-12.079,16.646-14.809,26.74c-0.918,3.397-3.173,5.653-5.305,8.105
	c-1.199,1.378-2.369,0.846-3.255-0.382c-4.893-6.773-7.747-13.784-3.889-22.241c7.001-15.349,16.121-28.987,29.983-39.027
	c1.157-0.837,2.671-1.776,1.383-3.372c-1.274-1.577-2.642-0.193-3.711,0.574c-10.663,7.655-18.698,17.628-25.263,28.877
	c-0.212,0.363-0.428,0.726-0.835,0.992c1.674-5.351,4.174-10.318,7.201-15.016c8.93-13.86,21.095-23.793,36.615-29.373
	c7.658-2.753,15.432-2.899,22.904,0.988c1.122,0.584,2.78,1.072,2.528,2.619c-0.304,1.869-2.169,1.522-3.512,1.563
	c-13.164,0.388-25.139,4.218-35.661,12.251c-1.29,0.984-2.411,2.205-3.525,3.396c-0.633,0.677-0.889,1.547-0.115,2.343
	c0.75,0.771,1.606,0.591,2.38,0.063c0.626-0.428,1.169-0.979,1.75-1.474c8.858-7.565,19.244-11.444,30.708-12.691
	c0.926-0.101,2.176-0.571,2.715,0.443c0.56,1.057-0.679,1.695-1.232,2.438c-0.717,0.962-1.642,1.777-2.304,2.771
	c-1.849,2.771-4.266,3.682-7.683,3.88c-9.335,0.54-16.491,5.876-23.165,11.854c-8.211,7.355-14.57,16.237-20.487,25.442
	c-0.879,1.368-3.043,3.396-0.747,4.735c2.251,1.313,2.867-1.532,3.824-2.947c7.233-10.7,14.636-21.254,25.304-28.938
	C106.908,82.629,111.771,79.821,118.634,79.372z"/>
<path fill-rule="evenodd" clip-rule="evenodd" fill="none" d="M137.493,96.205c1.269,14.869,10.43,24.6,21.281,33.297
	c-9.626-4.141-18.633-9.009-23.926-18.654c-0.316-0.575-0.603-1.165-0.903-1.748c-0.538-1.044-1.267-1.956-2.554-1.41
	c-1.54,0.653-1.109,1.951-0.627,3.079c2.901,6.792,8.029,11.646,14.008,15.652c6.111,4.095,12.708,7.262,19.749,9.44
	c2.347,0.726,4.346,1.907,6.204,3.515c6.779,5.862,13.574,11.71,20.49,17.41c2.21,1.821,1.962,3.145,0.204,5.047
	c-1.898,2.055-2.825,0.676-4.179-0.622c-6.719-6.438-14.461-11.256-23.316-14.191c-1.345-0.446-3.204-1.462-3.882,0.707
	c-0.612,1.956,1.362,2.235,2.621,2.643c8.288,2.681,15.271,7.451,21.597,13.3c2.978,2.753,2.927,3.755-0.038,6.566
	c-1.149,1.089-2.034,1.058-3.03-0.051c-5.844-6.506-13.555-10.25-21.188-13.993c-14.38-7.051-28.229-14.863-39.977-25.941
	c-1.428-1.347-2.813-2.744-4.146-4.184c-2.307-2.492-1.959-4.64,0.854-6.538c1.484-1.001,1.941,0.176,2.533,1.018
	c5.853,8.322,13.826,14.165,22.459,19.234c0.737,0.433,1.562,0.784,2.392,0.976c0.85,0.197,1.498-0.328,1.764-1.125
	c0.339-1.015-0.297-1.67-1.063-2.161c-2.204-1.416-4.511-2.685-6.634-4.211c-6.219-4.472-12.337-9.059-16.452-15.754
	c-0.822-1.337-1.298-2.514-0.154-3.855c5.016-5.882,10.028-11.767,15.042-17.651C136.91,96.066,137.202,96.136,137.493,96.205z
	 M140.294,130.253c-0.747,1.381,0.126,2.248,0.991,3.111c3.381,3.379,7.494,5.592,11.858,7.389
	c5.57,2.293,11.355,3.851,17.273,4.914c1.166,0.209,2.581,0.392,2.91-1.244c0.323-1.603-0.915-2.006-2.163-2.266
	c-0.32-0.067-0.639-0.142-0.958-0.216c-9.697-2.245-19.389-4.497-27.004-11.604C142.328,129.522,141.299,129.28,140.294,130.253z"/>
<path fill-rule="evenodd" clip-rule="evenodd" fill="none" d="M273.887,252.918c-1.272-0.083-1.749-0.895-2.369-1.422
	c-21.888-18.624-43.763-37.264-65.635-55.907c-3.442-2.935-3.461-2.974-0.503-6.403c5.683-6.586,4.156-6.274,10.563-0.841
	c17.086,14.486,34.087,29.075,51.2,43.531c2.091,1.767,3.18,3.634,3.262,6.379C270.555,243.295,272.078,248.083,273.887,252.918z"/>
<path fill-rule="evenodd" clip-rule="evenodd" fill="none" d="M134.974,86.381c-7.776,9.126-15.54,18.264-23.332,27.376
	c-8.381,9.8-16.77,19.595-25.204,29.351c-1.656,1.915-8.127,1.068-9.416-1.105c-0.521-0.882,0.112-1.454,0.587-2.012
	c3.893-4.58,7.781-9.166,11.741-13.687c0.62-0.708,1.565-1.168,2.422-1.625c8.032-4.294,15.752-9.01,21.68-16.123
	c0.972-1.166,1.809-2.448,2.661-3.709c0.608-0.9,0.824-1.895-0.287-2.543c-1.056-0.618-1.841-0.041-2.461,0.876
	c-3.945,5.825-9.638,9.671-15.583,13.365c0.529-0.702,1.023-1.433,1.591-2.101c12.679-14.9,25.361-29.796,38.053-44.684
	c2.636-3.093,2.496-2.966,4.952,0.508c2.939,4.159,3.294,5.858-2.792,8.873c-4.125,2.042-8.233,4.063-11.738,7.096
	c-0.905,0.783-1.749,1.648-2.541,2.547c-0.755,0.857-1.354,1.893-0.298,2.881c1.039,0.973,2.044,0.387,2.857-0.454
	C129.85,89.164,132.023,87.377,134.974,86.381z"/>
<path fill-rule="evenodd" clip-rule="evenodd" fill="none" d="M200.46,182.833c-2.336,2.742-4.705,5.458-6.997,8.236
	c-1.49,1.805-2.911,1.934-4.694,0.349c-8.755-7.785-8.345-4.78-1.397-13.272c3.11-3.801,6.452-7.416,9.508-11.257
	c1.789-2.248,3.186-2.675,5.532-0.569c7.95,7.133,7.718,4.965,1.029,13.032c-0.975,1.176-1.98,2.328-2.971,3.492
	C200.467,182.838,200.463,182.835,200.46,182.833z"/>
<path fill-rule="evenodd" clip-rule="evenodd" fill="none" d="M141.173,150.847c10.61,6.178,22.55,9.973,32.398,17.564
	c1.38,1.063,2.669,2.248,3.966,3.414c0.465,0.419,1.142,0.938,0.7,1.613c-0.211,0.323-0.979,0.443-1.47,0.396
	c-5.197-0.495-10.235-0.905-14.495-4.867C155.49,162.658,148.23,156.861,141.173,150.847z"/>
<path fill-rule="evenodd" clip-rule="evenodd" fill="none" d="M103.759,134.74c2.381-2.794,4.105-4.844,5.86-6.868
	c1.066-1.23,2.128-0.895,3.028,0.19c2.804,3.376,6.375,5.935,10.253,9.621C116.479,135.215,110.707,134.083,103.759,134.74z"/>
<path fill-rule="evenodd" clip-rule="evenodd" fill="none" d="M1521.31,410.413c-0.843,5.191-1.644,10.39-2.54,15.571
	c-0.97,5.604-0.54,10.925,2.584,15.874c2.832,4.485,1.922,9.738,2.57,14.62c1.664,12.537,2.788,25.146,4.095,37.729
	c0.169,1.628,0.635,3.688-1.281,4.431c-2.84,1.102-6.001,1.11-8.798,0.051c-1.876-0.711-1.037-2.898-0.794-4.504
	c1.576-10.371,3.153-20.741,3.552-31.245c0.045-1.165,0.053-2.334-0.001-3.498c-0.08-1.734-0.377-3.619-2.483-3.735
	c-2.466-0.137-2.771,1.917-2.94,3.811c-0.684,7.625-1.262,15.261-2.063,22.873c-0.452,4.299-1.329,8.552-1.884,12.842
	c-0.366,2.831-1.809,4.067-4.658,3.999c-3.83-0.091-7.67-0.131-11.496,0.029c-3.634,0.151-4.363-0.92-2.779-4.329
	c5.358-11.535,9.249-23.541,10.858-36.226c0.7-5.52,1.127-11.201-0.946-16.319c-5.768-14.234-3.624-28.463-0.964-42.791
	c2.703-14.559,5.899-29.018,6.495-43.919c0.852-21.316-6.988-39.341-20.136-55.471c-4.313-5.293-8.8-10.485-14.324-14.588
	c-2.794-2.075-3.476-4.492-2.644-7.812c1.22-4.866,2.708-9.594,4.845-14.148c2.011-4.285,4.994-4.917,8.971-2.991
	c6.947,3.366,11.355,9.13,14.716,15.793c6.873,13.626,9.314,28.414,10.911,43.363c1.063,9.94,2.113,19.874,4.285,29.64
	c0.684,3.073,1.663,6.125,2.896,9.021c2.46,5.771,4.934,6.868,11.709,5.143c-3.153,12.866-1.972,26.146-9.926,37.787
	c-7.602,11.125-11.466,23.984-11.966,37.643c-0.023,0.666-0.059,1.335-0.025,1.999c0.09,1.796-0.237,4.085,2.276,4.302
	c2.821,0.244,3.073-2.185,3.11-4.157c0.195-10.169,2.697-19.756,6.976-28.926c0.332-0.711,0.715-1.397,1.074-2.095
	C1520.826,410.255,1521.068,410.334,1521.31,410.413z"/>
<path fill-rule="evenodd" clip-rule="evenodd" fill="none" d="M1478.742,461.588c0.652-8.142-0.016-16.523,4.302-24.152
	c2.459-4.347,0.933-9.479,0.33-14.249c-0.375-2.968-0.783-5.979-1.641-8.83c-4.021-13.376,1.024-26.379,1.523-39.56
	c0.619-16.354,0.781-33.074-9.107-46.647c-8.528-11.703-4.59-23.829-5.329-35.879c-0.159-2.578,1.56-2.052,2.899-0.802
	c20.686,19.303,33.984,41.592,30.205,71.404c-2.055,16.207-5.992,32.066-8.056,48.242c-1.29,10.112-1.606,20.2,2.353,30.019
	c3.401,8.435,1.798,17.041,0,25.575c-2.143,10.169-6.137,19.672-10.202,29.174c-1.824,4.265-5.263,3.47-8.459,3.174
	c-3.757-0.349-3.006-3.462-2.81-5.815c0.633-7.595,1.095-15.104,5.578-21.926c2.78-4.229,4.147-9.414,5.952-14.243
	c0.718-1.923,1.886-4.519-1.14-5.48c-2.655-0.845-3.197,1.667-3.919,3.497C1480.371,457.246,1479.567,459.421,1478.742,461.588z"/>
<path fill-rule="evenodd" clip-rule="evenodd" fill="none" d="M1506.469,603.115c0.5,15.126-0.621,33.438,0.604,51.746
	c1.435,21.443,4.876,42.629,7.58,63.912c2.197,17.291,5.798,34.563,1.43,52.049c-1.583,6.337-3.472,12.539-7.567,17.784
	c-4.823,6.177-10.026,6.158-14.595-0.211c-6.336-8.837-8.433-19.076-9.185-29.657c-0.999-14.069,1.179-27.945,3.495-41.7
	c6.742-40.054,8.57-80.353,7.514-120.882c-0.399-15.304,0.086-30.63-0.041-45.944c-0.033-3.993,1.885-4.643,5.24-4.67
	c3.58-0.03,5.615,0.76,5.581,4.939C1506.389,566.965,1506.469,583.452,1506.469,603.115z M1515.811,755.987
	c-0.361-12.365-2.275-24.49-6.391-36.173c-1.457-4.138-2.929-9.412-8.386-9.3c-5.154,0.105-6.436,5.273-7.856,9.249
	c-4.286,11.995-6.252,24.499-6.595,37.167c-0.217,8.003,1.15,15.957,4.78,23.245c2.094,4.203,4.61,8.468,10.151,8.392
	c5.313-0.073,7.649-4.244,9.64-8.316C1514.886,772.617,1516.084,764.436,1515.811,755.987z"/>
<path fill-rule="evenodd" clip-rule="evenodd" fill="none" d="M1517.644,253.063c10.979,8.299,13.911,20.496,15.58,33.217
	c2.404,18.315,0.6,36.557-1.289,54.777c-0.539,5.195-2.433,10.017-5.031,14.534c-0.633,1.102-1.11,2.792-2.688,2.595
	c-1.455-0.182-1.853-1.827-2.29-3.028c-3.156-8.679-4.249-17.778-5.209-26.88c-1.748-16.57-3.471-33.138-9.925-48.738
	c-4.233-10.232-9.933-19.28-20.479-24.143c-2.447-1.129-2.209-2.303-0.259-3.429c6.135-3.542,12.714-4.765,19.71-3.345
	c2.393,0.485,3.43,2.506,4.629,4.282c10.701,15.845,15.309,33.438,14.977,52.438c-0.044,2.498-0.117,4.996-0.118,7.494
	c0,1.856-0.03,4.091,2.414,4.213c2.745,0.138,2.934-2.249,3.018-4.267c0.316-7.654,0.536-15.311-0.545-22.933
	C1528.292,276.84,1524.24,264.593,1517.644,253.063z"/>
<path fill-rule="evenodd" clip-rule="evenodd" fill="none" d="M1501.004,534.123c-4.153,0.004-8.31-0.094-12.458,0.034
	c-3.281,0.102-4.993-1.073-4.916-4.578c0.108-4.981,0.076-9.968,0.01-14.95c-0.035-2.72,1.133-3.9,3.883-3.882
	c9.303,0.063,18.606,0.063,27.909-0.002c2.826-0.02,3.806,1.31,3.755,3.978c-0.091,4.815-0.112,9.636-0.018,14.452
	c0.072,3.667-1.713,5.051-5.207,4.97C1509.645,534.042,1505.323,534.12,1501.004,534.123z"/>
<path fill-rule="evenodd" clip-rule="evenodd" fill="none" d="M1476.86,382.144c-3.267-16.39-5.282-32.956-6.731-49.602
	C1479.353,348.094,1477.578,365.194,1476.86,382.144z"/>
<path fill-rule="evenodd" clip-rule="evenodd" fill="none" d="M1430.723,26.003c0-5.826,0.021-11.651-0.008-17.477
	c-0.016-3.25,1.447-4.74,4.789-5.003c11.054-0.871,20.197,3.611,24.287,12.167c4.763,9.966,2.866,22.787-4.737,30.128
	c-5.444,5.256-12.206,6.537-19.466,5.253c-3.512-0.621-4.832-3.222-4.836-6.593c-0.008-6.159-0.003-12.317-0.003-18.476
	C1430.74,26.003,1430.731,26.003,1430.723,26.003z"/>
<path fill-rule="evenodd" clip-rule="evenodd" fill="none" d="M1265.659,121.811c0.001-1.829-0.01-3.658,0.003-5.487
	c0.047-6.529,1.138-7.465,7.703-6.63c6.402,0.814,10.354,4.393,10.842,9.821c0.481,5.353-3.267,10.613-8.852,12.402
	c-0.631,0.203-1.287,0.329-1.934,0.488c-7.043,1.732-7.75,1.177-7.764-6.105C1265.655,124.803,1265.658,123.307,1265.659,121.811z"
	/>
<path fill-rule="evenodd" clip-rule="evenodd" fill="none" d="M1283.463,26.554c-0.287-6.381,1.283-12.139,5.379-17.177
	c6.171-7.591,15.209-8.75,22.905-2.811c10.677,8.239,13.639,26.217,6.177,37.502c-5.942,8.987-16.623,10.744-25.053,3.996
	C1286.006,42.568,1283.238,35.184,1283.463,26.554z"/>
<path fill-rule="evenodd" clip-rule="evenodd" fill="none" d="M1392.561,29.555c0.144,3.323-0.547,7.211-2.015,10.989
	c-4.813,12.387-18.791,15.477-28.393,6.25c-9.663-9.285-10.864-26.967-2.548-37.516c6.066-7.694,15.525-8.693,23.362-2.466
	C1389.35,11.883,1392.582,19.303,1392.561,29.555z"/>
<path fill-rule="evenodd" clip-rule="evenodd" fill="none" d="M1210.6,115.586c1.92,5.951,3.842,11.901,5.76,17.854
	c0.529,1.641-0.003,2.581-1.795,2.661c-0.498,0.022-0.996,0.051-1.494,0.046c-13.281-0.138-11.667,1.525-7.685-10.172
	c1.168-3.431,2.523-6.798,3.792-10.194C1209.652,115.715,1210.126,115.651,1210.6,115.586z"/>
<path fill-rule="evenodd" clip-rule="evenodd" d="M140.294,130.253c1.005-0.973,2.034-0.731,2.908,0.085
	c7.616,7.106,17.307,9.358,27.004,11.604c0.319,0.074,0.637,0.149,0.958,0.216c1.248,0.26,2.485,0.664,2.163,2.266
	c-0.329,1.636-1.744,1.453-2.91,1.244c-5.918-1.063-11.703-2.62-17.273-4.914c-4.364-1.797-8.477-4.01-11.858-7.389
	C140.42,132.501,139.547,131.635,140.294,130.253z"/>
<path fill-rule="evenodd" clip-rule="evenodd" d="M1515.811,755.987c0.273,8.449-0.925,16.63-4.656,24.264
	c-1.99,4.072-4.326,8.243-9.64,8.316c-5.541,0.076-8.058-4.188-10.151-8.392c-3.63-7.288-4.997-15.242-4.78-23.245
	c0.343-12.668,2.309-25.172,6.595-37.167c1.421-3.976,2.702-9.144,7.856-9.249c5.457-0.112,6.929,5.162,8.386,9.3
	C1513.535,731.497,1515.449,743.622,1515.811,755.987z M1492.461,756.099c-0.13,6.203,0.231,12.352,2.393,18.229
	c1.258,3.423,2.551,8.083,6.273,8.267c4.067,0.199,5.028-4.671,6.323-8.025c0.832-2.158,1.455-4.445,1.819-6.73
	c2.583-16.215-0.381-31.803-5.57-47.105c-0.453-1.336-0.654-3.374-2.514-3.283c-1.714,0.084-2.007,2.03-2.488,3.398
	C1494.685,732.255,1492.653,744.018,1492.461,756.099z"/>
<path fill-rule="evenodd" clip-rule="evenodd" fill="none" d="M1492.461,756.099c0.192-12.081,2.224-23.844,6.236-35.25
	c0.481-1.368,0.774-3.314,2.488-3.398c1.859-0.091,2.061,1.947,2.514,3.283c5.189,15.303,8.153,30.891,5.57,47.105
	c-0.364,2.285-0.987,4.572-1.819,6.73c-1.295,3.354-2.256,8.225-6.323,8.025c-3.723-0.184-5.016-4.844-6.273-8.267
	C1492.692,768.451,1492.331,762.302,1492.461,756.099z"/>
</svg>
