<?xml version="1.0" encoding="utf-8"?>
<!-- Generator: Adobe Illustrator 16.0.0, SVG Export Plug-In . SVG Version: 6.00 Build 0)  -->
<!DOCTYPE svg PUBLIC "-//W3C//DTD SVG 1.1//EN" "http://www.w3.org/Graphics/SVG/1.1/DTD/svg11.dtd">
<svg version="1.1" id="Layer_1" xmlns="http://www.w3.org/2000/svg" xmlns:xlink="http://www.w3.org/1999/xlink" x="0px" y="0px"
	 width="271px" height="254px" viewBox="42.516 36.063 271 254" enable-background="new 42.516 36.063 271 254"
	 xml:space="preserve">
<path fill="#FFFFFF" d="M243.145,237.225c-14.311-12.193-28.636-24.365-42.906-36.604c-1.738-1.49-3.131-2.116-5.496-0.997
	c-4.027,1.906-7.581,0.345-10.809-2.415c-17.945-15.339-35.95-30.611-53.883-45.966c-3.703-3.172-7.78-5.637-12.307-7.358
	c-10.104-3.845-19.856-1.525-27.227,6.4c-3.712,3.991-3.984,4.11-9.013,1.964c-5.006-2.139-10.513-3.379-14.863-6.727
	c-10.943-8.416-14.315-19.922-12.582-33.212c1.441-11.06,5.892-21.006,11.892-30.259c10.36-15.975,24.56-27.112,42.82-32.709
	c11.522-3.532,22.25-1.484,31.932,5.771c1.236,0.927,2.355,1.968,3.169,3.284c2.816,4.553,5.588,9.132,8.422,13.673
	c1.322,2.12,1.317,4.091-0.334,6.019c-12.145,14.182-6.782,29.188,4.985,39.538c17.726,15.589,35.828,30.753,53.878,45.969
	c4.108,3.462,6.794,7.093,4.762,12.703c-0.656,1.812,0.878,2.533,1.907,3.412c10.632,9.094,21.285,18.163,31.934,27.235
	c8.402,7.16,16.799,14.328,25.216,21.472c1.54,1.306,2.906,2.648,2.906,4.871c0.005,13.451,6.549,24.219,14.202,34.524
	c1.679,2.259,4.124,4.42,1.503,7.434c-1.661,1.91-3.975,1.269-7.672-1.879c-14.146-12.049-28.287-24.102-42.43-36.151
	C243.149,237.22,243.147,237.223,243.145,237.225z M118.634,79.372c-6.863,0.449-11.727,3.258-16.343,6.583
	c-10.668,7.684-18.07,18.236-25.304,28.938c-0.957,1.416-1.573,4.261-3.824,2.947c-2.296-1.34-0.132-3.368,0.747-4.735
	c5.917-9.205,12.276-18.087,20.487-25.441c6.674-5.979,13.829-11.314,23.165-11.854c3.417-0.198,5.834-1.108,7.683-3.88
	c0.662-0.994,1.587-1.809,2.304-2.771c0.554-0.743,1.792-1.382,1.232-2.438c-0.539-1.014-1.789-0.544-2.715-0.443
	c-11.464,1.247-21.852,5.126-30.708,12.691c-0.581,0.495-1.124,1.045-1.75,1.474c-0.773,0.528-1.63,0.708-2.38-0.063
	c-0.774-0.796-0.52-1.666,0.115-2.343c1.113-1.191,2.234-2.412,3.524-3.396c10.521-8.034,22.497-11.863,35.661-12.251
	c1.342-0.04,3.208,0.306,3.512-1.563c0.252-1.548-1.405-2.035-2.527-2.619c-7.473-3.888-15.246-3.741-22.904-0.988
	c-15.521,5.58-27.687,15.513-36.615,29.373c-3.025,4.698-5.525,9.665-7.201,15.016c0.407-0.266,0.623-0.629,0.835-0.991
	c6.565-11.25,14.601-21.224,25.264-28.878c1.068-0.767,2.437-2.15,3.711-0.573c1.288,1.595-0.228,2.535-1.383,3.372
	c-13.862,10.04-22.981,23.678-29.983,39.026c-3.858,8.457-1.004,15.468,3.889,22.241c0.887,1.229,2.057,1.76,3.255,0.382
	c2.132-2.452,4.388-4.708,5.306-8.104c2.729-10.095,8.273-18.714,14.809-26.74c0.87-1.069,1.982-2.661,3.464-1.475
	c1.733,1.387,0.05,2.701-0.798,3.879c-1.853,2.566-3.873,5.022-5.585,7.679c-2.186,3.39-4.486,6.755-5.958,11.397
	C94.086,108.182,106.039,94.155,118.634,79.372z M137.493,96.205c-0.292-0.069-0.583-0.14-0.875-0.208
	c-5.014,5.884-10.026,11.769-15.042,17.65c-1.144,1.341-0.668,2.519,0.154,3.855c4.115,6.694,10.232,11.282,16.452,15.754
	c2.123,1.527,4.43,2.795,6.634,4.211c0.765,0.491,1.401,1.146,1.063,2.161c-0.267,0.797-0.914,1.322-1.764,1.125
	c-0.83-0.191-1.654-0.543-2.392-0.977c-8.634-5.068-16.606-10.912-22.459-19.233c-0.593-0.842-1.05-2.02-2.533-1.019
	c-2.813,1.898-3.162,4.046-0.854,6.538c1.334,1.439,2.72,2.837,4.146,4.185c11.747,11.079,25.596,18.89,39.977,25.94
	c7.634,3.744,15.346,7.487,21.188,13.993c0.997,1.109,1.881,1.14,3.03,0.051c2.965-2.812,3.016-3.813,0.037-6.565
	c-6.325-5.851-13.309-10.619-21.597-13.3c-1.259-0.407-3.233-0.688-2.621-2.644c0.678-2.169,2.537-1.153,3.882-0.707
	c8.855,2.936,16.598,7.753,23.316,14.191c1.354,1.297,2.281,2.677,4.179,0.622c1.758-1.902,2.006-3.227-0.204-5.048
	c-6.916-5.699-13.71-11.548-20.489-17.409c-1.858-1.608-3.856-2.789-6.204-3.516c-7.04-2.178-13.639-5.345-19.749-9.439
	c-5.979-4.006-11.107-8.859-14.008-15.652c-0.481-1.128-0.913-2.425,0.627-3.079c1.286-0.546,2.016,0.366,2.554,1.41
	c0.301,0.583,0.587,1.173,0.903,1.748c5.293,9.645,14.3,14.514,23.926,18.654C147.923,120.805,138.762,111.073,137.493,96.205z
	 M273.887,252.918c-1.81-4.835-3.332-9.623-3.482-14.663c-0.082-2.745-1.17-4.612-3.262-6.379
	c-17.113-14.456-34.114-29.044-51.2-43.531c-6.407-5.433-4.88-5.745-10.563,0.841c-2.958,3.429-2.938,3.468,0.503,6.403
	c21.872,18.644,43.747,37.284,65.636,55.907C272.138,252.023,272.614,252.834,273.887,252.918z M134.974,86.381
	c-2.95,0.996-5.124,2.783-7.107,4.831c-0.813,0.841-1.819,1.427-2.856,0.454c-1.057-0.988-0.457-2.024,0.298-2.881
	c0.792-0.898,1.636-1.765,2.541-2.548c3.505-3.033,7.613-5.054,11.737-7.096c6.087-3.015,5.731-4.714,2.792-8.873
	c-2.456-3.474-2.315-3.601-4.951-0.508c-12.692,14.888-25.375,29.784-38.054,44.684c-0.567,0.668-1.063,1.398-1.591,2.102
	c5.945-3.694,11.638-7.54,15.583-13.365c0.621-0.917,1.405-1.494,2.461-0.876c1.111,0.649,0.896,1.643,0.287,2.543
	c-0.853,1.261-1.689,2.543-2.661,3.709c-5.928,7.113-13.647,11.829-21.68,16.123c-0.857,0.457-1.802,0.917-2.422,1.625
	c-3.96,4.521-7.849,9.106-11.741,13.688c-0.475,0.558-1.108,1.13-0.587,2.012c1.289,2.174,7.76,3.021,9.416,1.104
	c8.435-9.756,16.823-19.551,25.204-29.351C119.434,104.645,127.198,95.507,134.974,86.381z M200.46,182.833
	c0.003,0.003,0.008,0.006,0.011,0.009c0.99-1.164,1.995-2.316,2.971-3.492c6.688-8.067,6.921-5.897-1.029-13.032
	c-2.346-2.105-3.743-1.678-5.532,0.569c-3.057,3.842-6.397,7.456-9.508,11.257c-6.947,8.493-7.356,5.488,1.397,13.272
	c1.783,1.585,3.204,1.456,4.693-0.35C195.755,188.29,198.124,185.573,200.46,182.833z M141.173,150.847
	c7.059,6.014,14.317,11.812,21.101,18.12c4.26,3.962,9.298,4.373,14.495,4.867c0.49,0.047,1.258-0.073,1.47-0.396
	c0.441-0.675-0.235-1.193-0.7-1.612c-1.296-1.166-2.586-2.351-3.966-3.414C163.723,160.82,151.783,157.025,141.173,150.847z
	 M103.759,134.74c6.947-0.655,12.721,0.477,19.142,2.942c-3.877-3.686-7.449-6.244-10.253-9.621c-0.9-1.084-1.962-1.42-3.028-0.189
	C107.865,129.896,106.14,131.945,103.759,134.74z"/>
<path fill="#FFFFFF" d="M140.294,130.253c1.005-0.974,2.034-0.731,2.908,0.085c7.616,7.105,17.307,9.357,27.004,11.604
	c0.319,0.074,0.638,0.149,0.958,0.217c1.248,0.26,2.485,0.663,2.163,2.266c-0.329,1.636-1.744,1.453-2.91,1.244
	c-5.918-1.063-11.703-2.62-17.272-4.914c-4.364-1.797-8.478-4.01-11.858-7.39C140.42,132.501,139.547,131.635,140.294,130.253z"/>
</svg>
